<?xml version="1.0" encoding="UTF-8"?>
<svg id="Layer_2" data-name="Layer 2" xmlns="http://www.w3.org/2000/svg" viewBox="0 0 126.88 79.05">
  <defs>
    <style>
      .cls-1 {
        fill: #214265;
      }

      .cls-1, .cls-2, .cls-3, .cls-4, .cls-5 {
        stroke-width: 0px;
      }

      .cls-2 {
        fill: #092038;
      }

      .cls-3 {
        fill: #00728b;
      }

      .cls-4 {
        fill: #fff;
      }

      .cls-5 {
        fill: #6cf;
      }
    </style>
  </defs>
  <g id="Layer_1-2" data-name="Layer 1">
    <g>
      <g>
        <polygon class="cls-1" points="21.49 70.34 .25 .25 35.83 50.56 35.12 50.48 21.49 70.34"/>
        <polygon class="cls-5" points=".25 .25 28.84 10.76 22.56 27.83 99.07 55.95 105.35 38.87 126.61 46.69 108.53 58.75 35.83 50.56 .25 .25"/>
        <rect class="cls-2" x="54.86" y="-7.4" width="18.19" height="81.51" transform="translate(10.59 81.88) rotate(-69.82)"/>
        <polygon class="cls-2" points="35.83 50.56 108.53 58.75 117.95 70.26 21.49 70.34 35.12 50.48 35.83 50.56"/>
        <path class="cls-3" d="m108.53,58.75l18.08-12.06c.44,1.71-8.66,23.57-8.66,23.57l-9.42-11.51Z"/>
      </g>
      <g>
        <path class="cls-4" d="m29.57,65.87c.78.38,1.85.7,3.23.71.74,0,1.59-.08,1.59-.39,0-.25-.53-.29-1.28-.35-2.75-.2-4.02-.68-4-1.99.01-1.54,1.68-2.09,3.59-2.07,1.26.01,2.38.29,3.19.64l-.65,1.46c-.66-.28-1.64-.5-2.68-.5-.79,0-1.54.08-1.54.39,0,.22.37.28,1.04.33,2.4.16,4.25.5,4.24,2.01-.01,1.41-1.52,2.08-3.62,2.06-1.83-.02-3.02-.46-3.83-.85l.71-1.46Z"/>
        <path class="cls-4" d="m37.89,65.02c.02-1.82,1.75-3.18,4.32-3.16,2.57.02,4.27,1.41,4.26,3.24-.02,1.82-1.75,3.18-4.31,3.16-2.57-.02-4.28-1.42-4.26-3.24Zm6.58.06c0-.98-1.02-1.57-2.27-1.58-1.26-.01-2.3.56-2.31,1.54,0,.97,1.03,1.57,2.28,1.58,1.25.01,2.29-.57,2.3-1.54Z"/>
        <path class="cls-4" d="m48.46,62.12l1.92.02-.04,4.4,4.49.04v1.6s-6.42-.06-6.42-.06l.05-6Z"/>
        <path class="cls-4" d="m62.69,67.4l-4.29-.04-.89,1.16-1.41-1.06,4.5-5.67,4.39,5.75-1.43,1.03-.87-1.18Zm-2.12-2.86l-1.01,1.31,2,.02-.99-1.33Z"/>
        <path class="cls-4" d="m70.68,66.63c-.24.01-.5.02-.76.02-.47,0-.94-.02-1.35-.05l-.02,1.7-1.92-.02.06-6.08c.9-.06,2-.1,3.12-.09,3.3.03,4.32,1.09,4.31,2.24,0,.76-.48,1.43-1.48,1.86l1.32,1.37-1.46,1.08-1.83-2.02Zm1.44-2.19c0-.34-.53-.67-2.3-.69-.46,0-.88,0-1.23.02v1.27c.34.02.76.04,1.22.04,1.77.02,2.31-.31,2.31-.65Z"/>
        <path class="cls-4" d="m75.66,62.37l7.55.07v1.6s-2.8-.03-2.8-.03l-.04,4.4-1.98-.02.04-4.4-2.78-.03v-1.6Z"/>
        <path class="cls-4" d="m91.64,68.51l-6.56-.06.05-6,6.57.06v1.6s-4.67-.04-4.67-.04v.68s3.7.03,3.7.03v1.44s-3.72-.03-3.72-.03v.68s4.64.04,4.64.04v1.6Z"/>
        <path class="cls-4" d="m100.7,68.08c-.77.45-1.77.7-2.92.69-2.65-.02-4.43-1.42-4.42-3.24.02-1.82,1.83-3.18,4.48-3.16,1.14.01,2.14.28,2.9.75l-.82,1.4c-.56-.29-1.32-.5-2.1-.51-1.33-.01-2.45.56-2.46,1.54s1.11,1.57,2.43,1.58c.78,0,1.54-.19,2.11-.47l.79,1.41Z"/>
        <path class="cls-4" d="m108.23,66.46l-3.68-.03-.02,2.2-1.92-.02.05-6,1.92.02-.02,2.2,3.68.03.02-2.2,1.92.02-.05,6-1.92-.02.02-2.2Z"/>
      </g>
      <g>
        <path class="cls-2" d="m66.23,75.41v-3.55h.69v3.55h-.69Z"/>
        <path class="cls-2" d="m70.1,73.14v2.27h-.69v-3.55h.53l1.85,2.33v-2.32h.69v3.54h-.56l-1.82-2.27Z"/>
        <path class="cls-2" d="m74.97,75.41v-3.55h1.29c.29,0,.54.05.76.14.22.09.4.22.55.38.15.16.26.35.33.56.07.21.11.44.11.69,0,.27-.04.51-.12.73-.08.22-.2.4-.35.56-.15.15-.34.27-.55.36s-.46.13-.72.13h-1.29Zm2.34-1.78c0-.17-.02-.33-.07-.47-.05-.14-.12-.27-.21-.37-.09-.1-.2-.18-.33-.24s-.28-.08-.45-.08h-.6v2.34h.6c.17,0,.32-.03.45-.09.13-.06.24-.14.33-.25.09-.1.16-.23.2-.37.05-.14.07-.3.07-.46Z"/>
        <path class="cls-2" d="m81.8,74.83c.16,0,.3-.03.41-.1.11-.07.2-.15.27-.26.07-.11.12-.23.14-.37s.04-.28.04-.43v-1.81h.68v1.81c0,.24-.03.47-.09.69-.06.21-.15.4-.28.56-.12.16-.29.29-.48.38-.2.09-.43.14-.71.14s-.52-.05-.72-.15c-.2-.1-.36-.23-.48-.39-.12-.16-.21-.35-.27-.56-.05-.21-.08-.43-.08-.67v-1.81h.69v1.81c0,.15.01.29.04.43.03.14.08.26.14.37.07.11.16.19.27.26.11.06.25.1.41.1Z"/>
        <path class="cls-2" d="m87.92,72.79s-.07-.05-.13-.09-.14-.08-.22-.12c-.09-.04-.18-.07-.29-.1-.1-.03-.21-.04-.32-.04-.19,0-.33.04-.42.1-.09.07-.14.17-.14.3,0,.07.02.13.05.18.04.05.09.09.15.13.07.04.15.07.25.1.1.03.22.06.35.1.17.05.33.1.47.15s.26.12.36.2c.1.08.17.18.23.29.05.11.08.25.08.41,0,.19-.04.35-.11.49-.07.13-.17.24-.29.33-.12.08-.26.14-.42.18-.16.04-.32.06-.5.06-.27,0-.53-.04-.79-.12-.26-.08-.49-.19-.7-.34l.3-.6s.08.07.16.12c.08.05.17.1.28.15.11.05.22.09.35.12s.26.05.4.05c.38,0,.57-.12.57-.36,0-.08-.02-.14-.07-.2-.04-.05-.11-.1-.18-.14s-.18-.08-.29-.11c-.11-.03-.24-.07-.38-.11-.17-.05-.32-.1-.44-.15-.12-.06-.23-.12-.31-.2-.08-.07-.15-.16-.19-.26-.04-.1-.06-.22-.06-.35,0-.18.03-.34.1-.48.07-.14.16-.26.28-.35s.26-.16.41-.21c.16-.05.33-.07.5-.07.25,0,.48.04.69.12.21.08.39.17.55.28l-.3.56Z"/>
        <path class="cls-2" d="m93.25,72.47h-1.13v2.94h-.69v-2.94h-1.13v-.6h2.96v.6Z"/>
        <path class="cls-2" d="m95.44,75.41v-3.55h1.57c.16,0,.31.03.45.1s.26.16.36.27c.1.11.18.24.24.38s.08.28.08.43c0,.23-.06.44-.17.63-.11.19-.27.32-.47.41l.81,1.33h-.78l-.72-1.19h-.68v1.19h-.69Zm.69-1.79h.86c.06,0,.12-.02.18-.04.06-.03.1-.07.14-.12s.07-.11.09-.18.04-.15.04-.23-.01-.16-.04-.23c-.03-.07-.06-.13-.11-.18-.04-.05-.1-.09-.16-.12-.06-.03-.12-.04-.18-.04h-.83v1.15Z"/>
        <path class="cls-2" d="m100.51,75.41v-3.55h.69v3.55h-.69Z"/>
        <path class="cls-2" d="m106.16,74.81v.6h-2.46v-3.55h2.42v.6h-1.73v.85h1.5v.56h-1.5v.92h1.78Z"/>
        <path class="cls-2" d="m110.49,72.79s-.07-.05-.13-.09-.14-.08-.23-.12c-.09-.04-.18-.07-.29-.1-.1-.03-.21-.04-.32-.04-.19,0-.33.04-.42.1-.09.07-.14.17-.14.3,0,.07.02.13.05.18.04.05.09.09.15.13.07.04.15.07.25.1.1.03.22.06.35.1.17.05.33.1.47.15s.26.12.36.2c.1.08.17.18.23.29.05.11.08.25.08.41,0,.19-.04.35-.11.49-.07.13-.17.24-.29.33-.12.08-.26.14-.42.18-.16.04-.32.06-.5.06-.27,0-.53-.04-.79-.12s-.49-.19-.7-.34l.31-.6s.08.07.16.12.17.1.28.15.23.09.36.12.26.05.4.05c.38,0,.57-.12.57-.36,0-.08-.02-.14-.06-.2-.04-.05-.11-.1-.19-.14-.08-.04-.18-.08-.29-.11-.11-.03-.24-.07-.38-.11-.17-.05-.32-.1-.44-.15-.12-.06-.23-.12-.31-.2-.08-.07-.15-.16-.19-.26s-.06-.22-.06-.35c0-.18.03-.34.1-.48.07-.14.16-.26.28-.35.12-.09.26-.16.41-.21.16-.05.33-.07.5-.07.25,0,.48.04.69.12.21.08.39.17.55.28l-.31.56Z"/>
      </g>
    </g>
  </g>
</svg>