<?xml version="1.0" encoding="UTF-8"?>
<svg id="Layer_2" data-name="Layer 2" xmlns="http://www.w3.org/2000/svg" viewBox="0 0 109.49 104.35">
  <defs>
    <style>
      .cls-1 {
        fill: #214265;
      }

      .cls-1, .cls-2, .cls-3, .cls-4, .cls-5 {
        stroke-width: 0px;
      }

      .cls-2 {
        fill: #092038;
      }

      .cls-3 {
        fill: #00728b;
      }

      .cls-4 {
        fill: #fff;
      }

      .cls-5 {
        fill: #6cf;
      }
    </style>
  </defs>
  <g id="Layer_1-2" data-name="Layer 1">
    <g>
      <g>
        <path class="cls-5" d="m83.54,44.64l25.71,53.91-80.03-25.88,1.72-25.5L62.35.25l7.32,15.35-12.38,5.89,31.96,67.18,12.41-5.92-18.12-38.11Zm-3.6,28.96l-20.44-43.7-12.35,5.96,20.44,43.7,12.35-5.96Z"/>
        <polygon class="cls-1" points="109.24 98.55 .26 97.15 29.22 72.67 109.24 98.55"/>
        <polygon class="cls-2" points="83.54 44.64 101.66 82.75 89.25 88.67 57.28 21.49 69.67 15.6 83.54 44.64"/>
        <polygon class="cls-2" points="83.54 44.64 69.67 15.6 69.7 15.59 83.54 44.64"/>
        <polygon class="cls-3" points="62.35 .25 30.93 47.17 10.9 18.8 62.35 .25"/>
        <polygon class="cls-2" points="59.5 29.9 79.93 73.6 67.58 79.56 47.14 35.86 59.5 29.9"/>
        <polygon class="cls-2" points="10.9 18.8 30.93 47.17 29.22 72.67 .26 97.15 10.9 18.8"/>
      </g>
      <g>
        <path class="cls-4" d="m9.91,93.52c.68.33,1.62.62,2.83.64.65,0,1.4-.06,1.4-.34,0-.22-.47-.26-1.12-.31-2.41-.19-3.51-.61-3.5-1.76.02-1.34,1.48-1.82,3.16-1.8,1.1.02,2.08.26,2.79.58l-.57,1.27c-.58-.25-1.44-.44-2.35-.45-.69,0-1.35.06-1.35.34,0,.2.33.25.91.29,2.1.15,3.72.46,3.7,1.78-.02,1.23-1.34,1.82-3.18,1.79-1.6-.02-2.64-.42-3.35-.76l.63-1.27Z"/>
        <path class="cls-4" d="m17.19,92.82c.02-1.6,1.55-2.78,3.8-2.75,2.25.03,3.74,1.26,3.71,2.86-.02,1.6-1.55,2.78-3.79,2.75-2.25-.03-3.74-1.26-3.72-2.86Zm5.76.08c.01-.85-.89-1.38-1.98-1.4-1.1-.02-2.02.48-2.03,1.34-.01.85.89,1.38,1.99,1.39,1.09.02,2.01-.49,2.02-1.34Z"/>
        <path class="cls-4" d="m26.45,90.33l1.68.02-.06,3.85,3.93.06-.02,1.4-5.61-.08.08-5.25Z"/>
        <path class="cls-4" d="m38.89,95.02l-3.75-.05-.78,1.01-1.23-.94,3.97-4.94,3.82,5.06-1.26.9-.76-1.03Zm-1.84-2.51l-.89,1.14,1.75.03-.86-1.17Z"/>
        <path class="cls-4" d="m45.87,94.39c-.21.01-.44.01-.67.01-.41,0-.82-.03-1.18-.05l-.02,1.49-1.68-.02.08-5.32c.79-.04,1.75-.08,2.73-.07,2.89.04,3.78.98,3.77,1.98,0,.67-.43,1.25-1.31,1.62l1.15,1.21-1.28.93-1.59-1.78Zm1.27-1.91c0-.3-.46-.59-2.01-.61-.41,0-.77,0-1.08.01l-.02,1.11c.31.02.67.04,1.08.04,1.55.02,2.02-.26,2.03-.56Z"/>
        <path class="cls-4" d="m50.25,90.67l6.61.1-.02,1.4-2.44-.04-.06,3.85-1.74-.02.06-3.85-2.44-.04.02-1.4Z"/>
        <path class="cls-4" d="m64.21,96.13l-5.75-.08.08-5.25,5.76.08-.02,1.4-4.08-.06v.6s3.24.05,3.24.05l-.02,1.26-3.25-.05v.6s4.06.06,4.06.06l-.02,1.4Z"/>
        <path class="cls-4" d="m72.13,95.79c-.68.39-1.56.61-2.56.59-2.32-.03-3.88-1.26-3.85-2.86.02-1.6,1.62-2.78,3.93-2.75,1,.01,1.87.26,2.54.67l-.73,1.22c-.49-.26-1.16-.44-1.84-.45-1.16-.02-2.15.48-2.16,1.33-.01.85.96,1.38,2.12,1.4.68,0,1.35-.16,1.85-.4l.69,1.24Z"/>
        <path class="cls-4" d="m78.74,94.41l-3.22-.05-.03,1.93-1.68-.02.08-5.25,1.68.02-.03,1.93,3.22.05.03-1.93,1.68.02-.08,5.25-1.68-.02.03-1.93Z"/>
      </g>
      <g>
        <path class="cls-2" d="m53.69,102.99v-3.55h.69v3.55h-.69Z"/>
        <path class="cls-2" d="m57.56,100.71v2.27h-.69v-3.55h.53l1.85,2.33v-2.32h.69v3.54h-.56l-1.82-2.27Z"/>
        <path class="cls-2" d="m62.43,102.99v-3.55h1.29c.29,0,.54.05.76.14.22.09.4.22.55.38.15.16.26.35.33.56.07.21.11.44.11.69,0,.27-.04.51-.12.73-.08.22-.2.4-.35.56-.15.15-.34.27-.55.36-.21.08-.46.13-.72.13h-1.29Zm2.34-1.78c0-.17-.02-.33-.07-.47-.05-.14-.12-.27-.21-.37-.09-.1-.2-.18-.33-.24s-.28-.08-.45-.08h-.6v2.34h.6c.17,0,.32-.03.45-.09.13-.06.24-.14.33-.25s.16-.23.2-.37c.05-.14.07-.3.07-.46Z"/>
        <path class="cls-2" d="m69.26,102.4c.16,0,.3-.03.41-.1.11-.07.2-.15.27-.26.07-.11.12-.23.14-.37s.04-.28.04-.43v-1.81h.68v1.81c0,.24-.03.47-.09.69-.06.21-.15.4-.27.56-.12.16-.29.29-.48.38-.2.09-.43.14-.71.14s-.52-.05-.72-.15c-.2-.1-.36-.23-.48-.39-.12-.16-.21-.35-.27-.56-.05-.21-.08-.43-.08-.67v-1.81h.69v1.81c0,.15.01.29.04.43.03.14.08.26.14.37.07.11.16.19.27.26.11.06.25.1.41.1Z"/>
        <path class="cls-2" d="m75.38,100.37s-.07-.05-.13-.09-.14-.08-.23-.12c-.09-.04-.18-.07-.29-.1-.1-.03-.21-.04-.32-.04-.19,0-.33.04-.42.1-.09.07-.14.17-.14.3,0,.07.02.13.05.18.04.05.09.09.15.13.07.04.15.07.25.1.1.03.22.06.35.1.17.05.33.1.47.15s.26.12.36.2.17.18.23.29c.05.11.08.25.08.41,0,.19-.04.35-.11.49-.07.13-.17.24-.29.33-.12.08-.26.14-.42.18-.16.04-.32.06-.5.06-.27,0-.53-.04-.79-.12-.26-.08-.49-.19-.7-.34l.31-.6s.08.07.16.12c.08.05.17.1.28.15.11.05.23.09.35.12s.26.05.4.05c.38,0,.57-.12.57-.36,0-.08-.02-.14-.06-.2-.04-.05-.11-.1-.19-.14-.08-.04-.18-.08-.29-.11-.11-.03-.24-.07-.38-.11-.17-.05-.32-.1-.44-.15-.12-.06-.23-.12-.31-.2-.08-.07-.15-.16-.19-.26-.04-.1-.06-.22-.06-.35,0-.18.03-.34.1-.48s.16-.26.28-.35c.12-.09.26-.16.41-.21s.33-.07.5-.07c.25,0,.48.04.69.12.21.08.39.17.55.28l-.31.56Z"/>
        <path class="cls-2" d="m80.71,100.04h-1.13v2.94h-.69v-2.94h-1.14v-.6h2.96v.6Z"/>
        <path class="cls-2" d="m82.9,102.99v-3.55h1.57c.16,0,.31.03.45.1.14.07.26.16.36.27.1.11.18.24.23.38s.08.28.08.43c0,.23-.06.44-.17.63-.11.19-.27.32-.47.41l.81,1.33h-.78l-.72-1.19h-.68v1.19h-.69Zm.69-1.79h.86c.06,0,.12-.02.18-.04.06-.03.1-.07.14-.12s.07-.11.09-.18.04-.15.04-.23-.01-.16-.04-.23c-.03-.07-.06-.13-.11-.18-.04-.05-.1-.09-.16-.12-.06-.03-.12-.04-.18-.04h-.83v1.15Z"/>
        <path class="cls-2" d="m87.97,102.99v-3.55h.69v3.55h-.69Z"/>
        <path class="cls-2" d="m93.62,102.38v.6h-2.46v-3.55h2.42v.6h-1.73v.85h1.5v.56h-1.5v.92h1.77Z"/>
        <path class="cls-2" d="m97.95,100.37s-.07-.05-.13-.09-.14-.08-.23-.12c-.09-.04-.18-.07-.29-.1-.1-.03-.21-.04-.32-.04-.19,0-.33.04-.42.1-.09.07-.14.17-.14.3,0,.07.02.13.05.18.04.05.09.09.15.13.07.04.15.07.25.1.1.03.22.06.35.1.17.05.33.1.47.15s.26.12.36.2.17.18.23.29c.05.11.08.25.08.41,0,.19-.04.35-.11.49-.07.13-.17.24-.29.33-.12.08-.26.14-.42.18-.16.04-.32.06-.5.06-.27,0-.53-.04-.79-.12-.26-.08-.49-.19-.7-.34l.31-.6s.08.07.16.12c.08.05.17.1.28.15.11.05.23.09.35.12s.26.05.4.05c.38,0,.57-.12.57-.36,0-.08-.02-.14-.06-.2-.04-.05-.11-.1-.19-.14-.08-.04-.18-.08-.29-.11-.11-.03-.24-.07-.38-.11-.17-.05-.32-.1-.44-.15-.12-.06-.23-.12-.31-.2-.08-.07-.15-.16-.19-.26-.04-.1-.06-.22-.06-.35,0-.18.03-.34.1-.48s.16-.26.28-.35c.12-.09.26-.16.41-.21s.33-.07.5-.07c.25,0,.48.04.69.12.21.08.39.17.55.28l-.31.56Z"/>
      </g>
    </g>
  </g>
</svg>