<?xml version="1.0" encoding="UTF-8"?>
<svg id="Layer_2" data-name="Layer 2" xmlns="http://www.w3.org/2000/svg" viewBox="0 0 116.75 100.45">
  <defs>
    <style>
      .cls-1 {
        fill: #214265;
      }

      .cls-1, .cls-2, .cls-3, .cls-4, .cls-5 {
        stroke-width: 0px;
      }

      .cls-2 {
        fill: #092038;
      }

      .cls-3 {
        fill: #00728b;
      }

      .cls-4 {
        fill: #fff;
      }

      .cls-5 {
        fill: #6cf;
      }
    </style>
  </defs>
  <g id="Layer_1-2" data-name="Layer 1">
    <g>
      <g>
        <path class="cls-5" d="m64.12,2.35l52.38,1.93-60.03,58.89-21.8-13.33L7.65.26l17,.63-.53,13.7,74.35,2.83.53-13.74-34.88-1.33Zm16.7,16.34l-48.2-2.16-.46,13.69,48.2,2.18.47-13.71Z"/>
        <polygon class="cls-1" points="116.49 4.29 64.71 100.2 56.46 63.17 116.49 4.29"/>
        <polygon class="cls-2" points="64.12 2.35 99 3.69 98.47 17.43 24.12 14.59 24.65 .89 56.38 2.07 64.12 2.35"/>
        <polygon class="cls-2" points="56.38 2.07 24.65 .89 24.65 .85 56.38 2.07"/>
        <polygon class="cls-3" points="7.65 .26 34.66 49.85 .26 54.42 7.65 .26"/>
        <polygon class="cls-2" points="32.62 16.53 80.82 18.69 80.35 32.4 32.16 30.22 32.62 16.53"/>
        <polygon class="cls-2" points=".26 54.42 34.66 49.85 56.46 63.17 64.71 100.2 .26 54.42"/>
      </g>
      <g>
        <path class="cls-4" d="m65.98,89.96c.61-.45,1.3-1.14,1.88-2.21.31-.57.59-1.27.35-1.4-.19-.1-.45.29-.79.84-1.28,2.04-2.17,2.83-3.18,2.28-1.18-.64-.93-2.16-.13-3.63.52-.97,1.2-1.73,1.81-2.21l.86,1.1c-.49.4-1.06,1.07-1.49,1.87-.33.61-.57,1.22-.33,1.35.17.09.37-.17.68-.67,1.11-1.79,2.13-3.08,3.3-2.45,1.08.59.99,2.03.11,3.65-.76,1.41-1.59,2.15-2.23,2.62l-.84-1.15Z"/>
        <path class="cls-4" d="m68.74,83.18c-1.4-.76-1.75-2.66-.67-4.64,1.07-1.98,2.85-2.73,4.25-1.97s1.75,2.66.67,4.64c-1.07,1.98-2.85,2.73-4.25,1.97Zm2.75-5.07c-.75-.41-1.63.15-2.16,1.11-.52.97-.51,2.01.24,2.42.75.4,1.63-.15,2.16-1.12.52-.96.5-2.01-.25-2.41Z"/>
        <path class="cls-4" d="m70.83,73.82l.8-1.48,3.39,1.83,1.87-3.45,1.23.67-2.67,4.93-4.62-2.5Z"/>
        <path class="cls-4" d="m80.75,64.98l-1.79,3.3.53,1.16-1.4.66-2.54-5.81,6.25-1.04.21,1.53-1.27.19Zm-3.08.47l.6,1.32.83-1.54-1.43.22Z"/>
        <path class="cls-4" d="m83.42,58.5c-.09.19-.19.39-.3.59-.2.36-.4.71-.59,1.02l1.31.71-.8,1.48-4.68-2.54c.33-.72.74-1.59,1.21-2.45,1.38-2.54,2.62-2.9,3.5-2.42.58.32.91.96.83,1.91l1.6-.46.23,1.57-2.32.58Zm-1.11-2.02c-.26-.14-.73.13-1.47,1.5-.19.36-.36.68-.49.96l.98.53c.16-.26.34-.58.54-.94.74-1.36.71-1.91.44-2.05Z"/>
        <path class="cls-4" d="m82.17,52.9l3.15-5.81,1.23.67-1.16,2.14,3.39,1.84-.83,1.53-3.39-1.83-1.16,2.14-1.23-.67Z"/>
        <path class="cls-4" d="m93.47,43.06l-2.74,5.06-4.62-2.5,2.74-5.06,1.23.67-1.94,3.58.52.28,1.55-2.86,1.11.6-1.55,2.86.52.28,1.94-3.58,1.23.67Z"/>
        <path class="cls-4" d="m96.84,35.88c.03.78-.18,1.66-.66,2.54-1.1,2.04-2.91,2.85-4.32,2.09-1.4-.76-1.71-2.72-.61-4.76.48-.88,1.1-1.54,1.77-1.94l.75,1.21c-.46.31-.93.82-1.25,1.42-.55,1.02-.57,2.13.18,2.54.75.41,1.67-.21,2.22-1.23.32-.6.49-1.27.5-1.82l1.42-.03Z"/>
        <path class="cls-4" d="m98.69,29.39l-1.54,2.83,1.69.92-.8,1.48-4.62-2.5.8-1.48,1.69.92,1.53-2.83-1.69-.92.8-1.48,4.62,2.5-.8,1.48-1.69-.92Z"/>
      </g>
    </g>
  </g>
</svg>