<?xml version="1.0" encoding="UTF-8"?>
<svg id="Layer_2" data-name="Layer 2" xmlns="http://www.w3.org/2000/svg" viewBox="0 0 94.86 133.2">
  <defs>
    <style>
      .cls-1 {
        fill: #214265;
      }

      .cls-1, .cls-2, .cls-3, .cls-4, .cls-5 {
        stroke-width: 0px;
      }

      .cls-2 {
        fill: #092038;
      }

      .cls-3 {
        fill: #00728b;
      }

      .cls-4 {
        fill: #fff;
      }

      .cls-5 {
        fill: #6cf;
      }
    </style>
  </defs>
  <g id="Layer_1-2" data-name="Layer 1">
    <g>
      <g>
        <polygon class="cls-1" points="3.5 64.86 37.98 .25 27.62 61 27.17 60.44 3.5 64.86"/>
        <polygon class="cls-5" points="37.98 .25 50.79 27.88 34.29 35.53 68.57 109.49 85.08 101.84 94.61 122.39 73.29 118.15 27.62 61 37.98 .25"/>
        <rect class="cls-2" x="50.59" y="27.93" width="18.19" height="81.52" transform="translate(-23.35 31.47) rotate(-24.87)"/>
        <polygon class="cls-2" points="27.62 61 73.29 118.15 71.83 132.95 3.5 64.86 27.17 60.44 27.62 61"/>
        <path class="cls-3" d="m73.29,118.15l21.32,4.24c-.9,1.52-22.78,10.56-22.78,10.56l1.45-14.8Z"/>
      </g>
      <g>
        <path class="cls-4" d="m13.57,67.92c.25.72.72,1.58,1.56,2.44.46.46,1.04.94,1.23.74.15-.15-.15-.51-.58-1.01-1.58-1.83-2.07-2.9-1.25-3.71.96-.94,2.33-.25,3.51.94.77.78,1.3,1.65,1.58,2.38l-1.3.5c-.24-.58-.71-1.32-1.35-1.97-.49-.5-1-.9-1.2-.71-.14.14.06.41.44.85,1.39,1.58,2.32,2.94,1.38,3.87-.88.87-2.23.35-3.52-.96-1.12-1.14-1.59-2.15-1.85-2.9l1.34-.46Z"/>
        <path class="cls-4" d="m19.24,72.54c1.14-1.12,3.05-.89,4.63.72,1.58,1.6,1.77,3.52.64,4.64-1.14,1.12-3.05.89-4.63-.71-1.58-1.61-1.78-3.53-.64-4.65Zm4.04,4.11c.61-.6.34-1.61-.43-2.39-.77-.78-1.77-1.07-2.38-.47-.6.59-.33,1.61.44,2.39.77.78,1.77,1.06,2.38.47Z"/>
        <path class="cls-4" d="m27.58,77.28l1.18,1.2-2.75,2.7,2.75,2.8-1,.98-3.93-4,3.74-3.68Z"/>
        <path class="cls-4" d="m33.13,89.35l-2.63-2.68-1.27.17-.22-1.53,6.29-.73-.83,6.28-1.53-.25.19-1.27Zm.46-3.08l-1.44.19,1.23,1.25.21-1.43Z"/>
        <path class="cls-4" d="m38.55,93.81c-.16-.14-.32-.3-.48-.46-.29-.29-.56-.59-.8-.87l-1.06,1.05-1.18-1.2,3.79-3.73c.59.53,1.3,1.17,1.99,1.87,2.03,2.06,2,3.35,1.29,4.06-.47.47-1.19.59-2.07.24l-.03,1.67-1.57-.24.12-2.39Zm2.25-.47c.21-.21.09-.74-1-1.85-.28-.29-.55-.54-.78-.75l-.79.78c.21.23.45.5.74.79,1.09,1.1,1.62,1.24,1.83,1.03Z"/>
        <path class="cls-4" d="m44.28,94.25l4.64,4.71-1,.98-1.71-1.74-2.75,2.7-1.22-1.24,2.75-2.7-1.71-1.74,1-.98Z"/>
        <path class="cls-4" d="m50.38,107.94l-4.03-4.1,3.74-3.68,4.04,4.1-1,.98-2.86-2.91-.42.42,2.28,2.32-.9.88-2.28-2.32-.42.42,2.85,2.9-1,.98Z"/>
        <path class="cls-4" d="m56.25,113.26c-.76-.2-1.53-.66-2.24-1.38-1.63-1.65-1.87-3.62-.73-4.74,1.14-1.12,3.1-.84,4.73.81.7.71,1.15,1.5,1.34,2.26l-1.38.36c-.16-.53-.51-1.13-.99-1.61-.81-.83-1.87-1.17-2.48-.57-.61.6-.29,1.66.53,2.49.48.48,1.07.84,1.6,1.01l-.38,1.37Z"/>
        <path class="cls-4" d="m61.91,116.92l-2.26-2.3-1.37,1.35-1.18-1.2,3.74-3.68,1.18,1.2-1.37,1.35,2.26,2.3,1.37-1.35,1.18,1.2-3.74,3.68-1.18-1.2,1.37-1.35Z"/>
      </g>
    </g>
  </g>
</svg>