<?xml version="1.0" encoding="UTF-8"?>
<svg id="Layer_2" data-name="Layer 2" xmlns="http://www.w3.org/2000/svg" viewBox="0 0 116.75 100.45">
  <defs>
    <style>
      .cls-1 {
        fill: #214265;
      }

      .cls-1, .cls-2, .cls-3, .cls-4 {
        stroke-width: 0px;
      }

      .cls-2 {
        fill: #092038;
      }

      .cls-3 {
        fill: #00728b;
      }

      .cls-4 {
        fill: #6cf;
      }
    </style>
  </defs>
  <g id="Layer_1-2" data-name="Layer 1">
    <g>
      <polygon class="cls-1" points="116.51 4.28 64.71 100.21 56.45 63.18 116.51 4.28"/>
      <path class="cls-4" d="m32.61,16.52l-.47,13.71,48.2,2.16.46-13.69-48.2-2.18ZM116.51,4.28l-60.06,58.9-21.78-13.32L7.66.24l16.98.63-.53,13.7,74.34,2.85.53-13.74-48.05-1.85,65.57,2.43Z"/>
      <polygon class="cls-2" points="50.94 1.85 98.99 3.69 98.46 17.43 24.12 14.58 24.64 .88 50.94 1.85"/>
      <polygon class="cls-2" points="50.94 1.85 24.64 .88 24.65 .84 50.94 1.85"/>
      <polygon class="cls-3" points="7.66 .24 34.68 49.86 .25 54.43 7.66 .24"/>
      <polygon class="cls-2" points="32.61 16.52 80.81 18.7 80.35 32.38 32.15 30.23 32.61 16.52"/>
      <polygon class="cls-2" points=".25 54.43 34.68 49.86 56.45 63.18 64.71 100.21 .25 54.43"/>
    </g>
  </g>
</svg>