<?xml version="1.0" encoding="UTF-8"?>
<svg id="Layer_2" data-name="Layer 2" xmlns="http://www.w3.org/2000/svg" viewBox="0 0 79.32 97.41">
  <defs>
    <style>
      .cls-1 {
        fill: #214265;
      }

      .cls-1, .cls-2, .cls-3, .cls-4 {
        stroke-width: 0px;
      }

      .cls-2 {
        fill: #092038;
      }

      .cls-3 {
        fill: #07a7cb;
      }

      .cls-4 {
        fill: #6cf;
      }
    </style>
  </defs>
  <g id="Layer_1-2" data-name="Layer 1">
    <g>
      <polygon class="cls-2" points="43.12 .25 79.07 59.11 58.41 61.26 27.91 25.49 43.12 .25"/>
      <polygon class="cls-1" points="43.12 .25 27.91 25.49 24.7 25.85 .25 28.65 43.12 .25"/>
      <path class="cls-4" d="m24.7,25.85l3.2-.37,30.5,35.78-15.72,35.9-25.79-41.62.95-.59,17.14-10.59-10.03-16.24-.26-2.28Zm17.02,29.44l-5.96-9.67-17.15,10.59,5.97,9.67,17.13-10.58Zm6.58,10.65l-5.89-9.55-17.15,10.59,5.9,9.55,17.14-10.59Z"/>
      <polygon class="cls-4" points=".25 28.65 24.7 25.85 24.96 28.13 7.83 38.71 17.85 54.95 16.9 55.54 .25 28.65"/>
      <rect class="cls-2" x="11.34" y="32" width="20.14" height="19.09" transform="translate(-18.63 17.45) rotate(-31.7)"/>
      <polygon class="cls-2" points="35.76 45.62 41.72 55.29 24.59 65.87 18.62 56.2 35.76 45.62"/>
      <polygon class="cls-3" points="58.41 61.26 79.07 59.11 42.69 97.16 58.41 61.26"/>
      <rect class="cls-2" x="26.72" y="60.85" width="20.15" height="11.23" transform="translate(-29.41 29.2) rotate(-31.66)"/>
    </g>
  </g>
</svg>