<?xml version="1.0" encoding="UTF-8"?>
<svg id="Layer_2" data-name="Layer 2" xmlns="http://www.w3.org/2000/svg" viewBox="0 0 208.52 47.51">
  <defs>
    <style>
      .cls-1 {
        fill: #214265;
      }

      .cls-1, .cls-2, .cls-3, .cls-4, .cls-5 {
        stroke-width: 0px;
      }

      .cls-6 {
        opacity: .23;
        stroke: #000;
        stroke-miterlimit: 10;
        stroke-width: .5px;
      }

      .cls-2 {
        fill: #092038;
      }

      .cls-3 {
        fill: #00728b;
      }

      .cls-4 {
        fill: #fff;
      }

      .cls-5 {
        fill: #0783a2;
      }
    </style>
  </defs>
  <g id="Layer_1-2" data-name="Layer 1">
    <g>
      <g>
        <polygon class="cls-2" points="120.89 10.59 120.89 10.59 10.43 .25 10.43 47.26 91.48 37.69 104.2 25.97 120.89 10.59"/>
        <polygon class="cls-1" points="10.43 .25 120.89 10.59 193.94 .25 10.43 .25"/>
        <polygon class="cls-3" points="10.43 47.26 193.94 47.26 91.48 37.69 10.43 47.26"/>
        <polygon class="cls-5" points="106.15 37.69 106.15 26.11 104.2 25.97 91.48 37.69 193.94 47.26 193.94 37.69 106.15 37.69"/>
        <rect class="cls-2" x="106.15" y="26.11" width="87.79" height="11.58"/>
        <polygon class="cls-5" points="193.94 26.11 193.94 .25 120.89 10.59 120.89 10.59 104.2 25.97 106.15 26.11 193.94 26.11"/>
      </g>
      <rect class="cls-6" x="10.44" y=".53" width="183.5" height="46.45"/>
      <g>
        <path class="cls-4" d="m23.97,19.92c1.57.74,3.71,1.36,6.48,1.36,1.49,0,3.19-.19,3.19-.82,0-.5-1.07-.58-2.56-.67-5.51-.35-8.05-1.28-8.05-3.91,0-3.07,3.33-4.21,7.15-4.21,2.51,0,4.77.53,6.4,1.23l-1.26,2.93c-1.33-.54-3.3-.96-5.38-.96-1.58,0-3.07.19-3.07.82,0,.45.75.56,2.1.64,4.8.27,8.52.93,8.52,3.95,0,2.82-3.01,4.19-7.22,4.19-3.67,0-6.05-.86-7.68-1.63l1.39-2.93Z"/>
        <path class="cls-4" d="m40.6,18.07c0-3.65,3.44-6.4,8.6-6.4s8.58,2.75,8.58,6.4-3.44,6.4-8.58,6.4-8.6-2.75-8.6-6.4Zm13.17,0c0-1.95-2.08-3.12-4.58-3.12s-4.59,1.17-4.59,3.12,2.08,3.12,4.59,3.12,4.58-1.18,4.58-3.12Z"/>
        <path class="cls-4" d="m61.68,12.07h3.84v8.8h8.98v3.2h-12.82v-12Z"/>
        <path class="cls-4" d="m90.25,22.38h-8.58l-1.76,2.34-2.85-2.1,8.9-11.43,8.9,11.43-2.85,2.1-1.76-2.34Zm-4.29-5.68l-2,2.64h4l-2-2.64Z"/>
        <path class="cls-4" d="m106.2,20.7c-.48.03-.99.05-1.52.05-.94,0-1.87-.03-2.71-.08v3.41h-3.84v-12.17c1.81-.13,4-.24,6.24-.24,6.61,0,8.68,2.11,8.68,4.4,0,1.52-.94,2.88-2.93,3.75l2.67,2.72-2.9,2.18-3.7-4.02Zm2.85-4.42c0-.69-1.07-1.33-4.61-1.33-.93,0-1.76.03-2.46.06v2.54c.7.03,1.54.06,2.46.06,3.54,0,4.61-.66,4.61-1.34Z"/>
        <path class="cls-4" d="m116.08,12.07h15.11v3.2h-5.57v8.8h-3.97v-8.8h-5.57v-3.2Z"/>
        <path class="cls-4" d="m148.17,24.08h-13.14v-12h13.16v3.2h-9.32v1.36h7.43v2.88h-7.43v1.36h9.3v3.2Z"/>
        <path class="cls-4" d="m166.27,23.04c-1.54.91-3.54,1.44-5.83,1.44-5.3,0-8.9-2.75-8.9-6.4s3.6-6.4,8.9-6.4c2.29,0,4.29.53,5.83,1.44l-1.62,2.82c-1.12-.58-2.66-.98-4.21-.98-2.66,0-4.9,1.17-4.9,3.12s2.24,3.12,4.9,3.12c1.55,0,3.09-.4,4.21-.98l1.62,2.82Z"/>
        <path class="cls-4" d="m181.31,19.68h-7.36v4.4h-3.84v-12h3.84v4.4h7.36v-4.4h3.84v12h-3.84v-4.4Z"/>
      </g>
      <g>
        <path class="cls-4" d="m109.76,35.37v-6.39h1.24v6.39h-1.24Z"/>
        <path class="cls-4" d="m116.73,31.28v4.1h-1.24v-6.39h.96l3.33,4.19v-4.19h1.24v6.38h-1.01l-3.28-4.1Z"/>
        <path class="cls-4" d="m125.5,35.37v-6.39h2.32c.52,0,.98.08,1.37.25.39.17.72.4.99.68s.46.63.59,1.01c.13.39.2.8.2,1.24,0,.49-.07.93-.22,1.32-.15.39-.36.73-.63,1.01-.28.28-.61.5-1,.65s-.82.23-1.3.23h-2.32Zm4.22-3.2c0-.31-.04-.59-.13-.85-.08-.26-.21-.48-.37-.67s-.36-.33-.6-.43c-.24-.1-.5-.15-.81-.15h-1.08v4.21h1.08c.31,0,.58-.05.82-.16.24-.11.43-.26.59-.45.16-.19.28-.41.36-.67.08-.26.13-.54.13-.84Z"/>
        <path class="cls-4" d="m137.79,34.32c.29,0,.54-.06.74-.18s.36-.28.49-.47c.12-.19.21-.41.26-.66s.08-.51.08-.77v-3.26h1.23v3.26c0,.44-.05.85-.16,1.23-.11.38-.27.72-.5,1.01s-.51.52-.87.68c-.35.17-.78.25-1.27.25s-.94-.09-1.3-.27c-.36-.18-.65-.41-.87-.7s-.38-.63-.48-1.01c-.1-.38-.15-.78-.15-1.2v-3.26h1.24v3.26c0,.27.03.53.08.78s.14.47.26.66.28.35.48.46c.2.12.44.18.73.18Z"/>
        <path class="cls-4" d="m148.8,30.66s-.12-.1-.23-.17c-.11-.07-.25-.14-.41-.21-.16-.07-.33-.13-.52-.18-.19-.05-.38-.07-.57-.07-.34,0-.6.06-.77.19-.17.13-.25.3-.25.53,0,.13.03.24.09.33.06.09.15.16.27.23s.27.13.46.18c.18.05.39.11.63.17.31.08.6.17.85.27.25.1.47.22.65.36s.31.32.41.52.14.45.14.74c0,.34-.06.63-.19.88-.13.24-.3.44-.52.59s-.47.26-.76.33c-.29.07-.58.1-.9.1-.48,0-.95-.07-1.42-.22s-.89-.35-1.26-.61l.55-1.07c.05.05.15.12.29.21.14.09.31.17.5.26.19.09.4.16.64.22s.47.09.72.09c.68,0,1.03-.22,1.03-.66,0-.14-.04-.25-.12-.35-.08-.1-.19-.18-.33-.25s-.32-.14-.52-.2c-.2-.06-.43-.13-.68-.2-.31-.08-.57-.18-.8-.27-.23-.1-.41-.22-.56-.35-.15-.13-.26-.29-.34-.47-.08-.18-.11-.39-.11-.63,0-.32.06-.61.18-.86s.29-.46.5-.63c.21-.17.46-.3.74-.38.28-.09.58-.13.91-.13.45,0,.86.07,1.24.21.38.14.71.31.99.5l-.55,1.01Z"/>
        <path class="cls-4" d="m158.39,30.07h-2.04v5.3h-1.23v-5.3h-2.04v-1.09h5.32v1.09Z"/>
        <path class="cls-4" d="m162.34,35.37v-6.39h2.83c.29,0,.57.06.81.18.25.12.46.29.64.49.18.2.32.43.42.68.1.26.15.51.15.77,0,.41-.1.79-.31,1.13-.21.34-.49.58-.84.73l1.46,2.4h-1.4l-1.3-2.14h-1.22v2.14h-1.24Zm1.24-3.23h1.56c.11,0,.22-.03.32-.08s.18-.13.26-.22c.07-.09.13-.2.17-.33s.06-.26.06-.41-.02-.29-.07-.41c-.05-.13-.11-.24-.19-.33-.08-.09-.17-.17-.28-.22-.11-.05-.21-.08-.32-.08h-1.5v2.07Z"/>
        <path class="cls-4" d="m171.47,35.37v-6.39h1.24v6.39h-1.24Z"/>
        <path class="cls-4" d="m181.63,34.28v1.09h-4.44v-6.39h4.36v1.09h-3.11v1.54h2.69v1.01h-2.69v1.67h3.2Z"/>
        <path class="cls-4" d="m189.43,30.66s-.12-.1-.23-.17c-.11-.07-.25-.14-.41-.21-.16-.07-.33-.13-.52-.18-.19-.05-.38-.07-.57-.07-.34,0-.6.06-.77.19-.17.13-.25.3-.25.53,0,.13.03.24.09.33.06.09.15.16.27.23s.27.13.46.18c.18.05.39.11.63.17.31.08.6.17.85.27.25.1.47.22.65.36s.31.32.41.52.14.45.14.74c0,.34-.06.63-.19.88-.13.24-.3.44-.52.59s-.47.26-.76.33c-.29.07-.58.1-.9.1-.48,0-.95-.07-1.42-.22s-.89-.35-1.26-.61l.55-1.07c.05.05.15.12.29.21.14.09.31.17.5.26.19.09.4.16.64.22s.47.09.72.09c.68,0,1.03-.22,1.03-.66,0-.14-.04-.25-.12-.35-.08-.1-.19-.18-.33-.25s-.32-.14-.52-.2c-.2-.06-.43-.13-.68-.2-.31-.08-.57-.18-.8-.27-.23-.1-.41-.22-.56-.35-.15-.13-.26-.29-.34-.47-.08-.18-.11-.39-.11-.63,0-.32.06-.61.18-.86s.29-.46.5-.63c.21-.17.46-.3.74-.38.28-.09.58-.13.91-.13.45,0,.86.07,1.24.21.38.14.71.31.99.5l-.55,1.01Z"/>
      </g>
    </g>
  </g>
</svg>