<?xml version="1.0" encoding="UTF-8"?>
<svg id="Layer_2" data-name="Layer 2" xmlns="http://www.w3.org/2000/svg" viewBox="0 0 208.52 86.49">
  <defs>
    <style>
      .cls-1 {
        fill: #214265;
      }

      .cls-1, .cls-2, .cls-3, .cls-4, .cls-5 {
        stroke-width: 0px;
      }

      .cls-2 {
        fill: #092038;
      }

      .cls-3 {
        fill: #00728b;
      }

      .cls-4 {
        fill: #fff;
      }

      .cls-5 {
        fill: #0783a2;
      }
    </style>
  </defs>
  <g id="Layer_1-2" data-name="Layer 1">
    <g>
      <g>
        <polygon class="cls-2" points="122.96 19.17 12.51 .25 12.51 86.24 93.56 68.73 122.96 19.17"/>
        <polygon class="cls-1" points="12.51 .25 122.96 19.17 196.01 .25 12.51 .25"/>
        <polygon class="cls-3" points="12.51 86.24 196.01 86.24 107.35 71.09 93.56 68.73 12.51 86.24"/>
        <polygon class="cls-5" points="122.96 19.17 93.56 68.73 107.35 71.09 108.23 69.95 108.23 51.59 196.01 51.59 196.01 .25 122.96 19.17"/>
        <polygon class="cls-5" points="107.35 71.09 196.01 86.24 196.01 69.95 108.23 69.95 107.35 71.09"/>
        <rect class="cls-2" x="108.23" y="51.59" width="87.78" height="18.37"/>
      </g>
      <g>
        <path class="cls-4" d="m23.97,30.65c1.57.74,3.71,1.36,6.48,1.36,1.49,0,3.19-.19,3.19-.82,0-.5-1.07-.58-2.56-.67-5.51-.35-8.05-1.28-8.05-3.91,0-3.07,3.33-4.21,7.15-4.21,2.51,0,4.77.53,6.4,1.23l-1.26,2.93c-1.33-.54-3.3-.96-5.38-.96-1.58,0-3.07.19-3.07.82,0,.45.75.56,2.1.64,4.8.27,8.52.93,8.52,3.95,0,2.82-3.01,4.19-7.22,4.19-3.67,0-6.05-.86-7.68-1.63l1.39-2.93Z"/>
        <path class="cls-4" d="m40.6,28.81c0-3.65,3.44-6.4,8.6-6.4s8.58,2.75,8.58,6.4-3.44,6.4-8.58,6.4-8.6-2.75-8.6-6.4Zm13.17,0c0-1.95-2.08-3.12-4.58-3.12s-4.59,1.17-4.59,3.12,2.08,3.12,4.59,3.12,4.58-1.18,4.58-3.12Z"/>
        <path class="cls-4" d="m61.68,22.81h3.84v8.8h8.98v3.2h-12.82v-12Z"/>
        <path class="cls-4" d="m90.25,33.12h-8.58l-1.76,2.34-2.85-2.1,8.9-11.43,8.9,11.43-2.85,2.1-1.76-2.34Zm-4.29-5.68l-2,2.64h4l-2-2.64Z"/>
        <path class="cls-4" d="m106.2,31.44c-.48.03-.99.05-1.52.05-.94,0-1.87-.03-2.71-.08v3.41h-3.84v-12.17c1.81-.13,4-.24,6.24-.24,6.61,0,8.68,2.11,8.68,4.4,0,1.52-.94,2.88-2.93,3.75l2.67,2.72-2.9,2.18-3.7-4.02Zm2.85-4.42c0-.69-1.07-1.33-4.61-1.33-.93,0-1.76.03-2.46.06v2.54c.7.03,1.54.06,2.46.06,3.54,0,4.61-.66,4.61-1.34Z"/>
        <path class="cls-4" d="m116.08,22.81h15.11v3.2h-5.57v8.8h-3.97v-8.8h-5.57v-3.2Z"/>
        <path class="cls-4" d="m148.17,34.81h-13.14v-12h13.16v3.2h-9.32v1.36h7.43v2.88h-7.43v1.36h9.3v3.2Z"/>
        <path class="cls-4" d="m166.27,33.77c-1.54.91-3.54,1.44-5.83,1.44-5.3,0-8.9-2.75-8.9-6.4s3.6-6.4,8.9-6.4c2.29,0,4.29.53,5.83,1.44l-1.62,2.82c-1.12-.58-2.66-.98-4.21-.98-2.66,0-4.9,1.17-4.9,3.12s2.24,3.12,4.9,3.12c1.55,0,3.09-.4,4.21-.98l1.62,2.82Z"/>
        <path class="cls-4" d="m181.31,30.41h-7.36v4.4h-3.84v-12h3.84v4.4h7.36v-4.4h3.84v12h-3.84v-4.4Z"/>
      </g>
      <g>
        <path class="cls-4" d="m48.2,47.39v-8.52h1.66v8.52h-1.66Z"/>
        <path class="cls-4" d="m58.08,41.93v5.46h-1.66v-8.52h1.28l4.44,5.59v-5.58h1.66v8.51h-1.34l-4.38-5.46Z"/>
        <path class="cls-4" d="m70.38,47.39v-8.52h3.1c.7,0,1.31.11,1.83.34.52.22.96.53,1.31.91s.62.83.79,1.35.26,1.07.26,1.65c0,.65-.1,1.23-.29,1.76-.2.52-.48.97-.85,1.34s-.81.66-1.33.86c-.52.2-1.09.31-1.73.31h-3.1Zm5.63-4.27c0-.41-.06-.78-.17-1.13-.11-.34-.28-.64-.49-.89-.22-.25-.48-.44-.8-.58-.32-.14-.67-.2-1.07-.2h-1.44v5.62h1.44c.41,0,.77-.07,1.09-.22s.58-.34.79-.59c.21-.25.37-.55.49-.89.11-.34.17-.72.17-1.12Z"/>
        <path class="cls-4" d="m87.38,45.99c.39,0,.72-.08.99-.24.27-.16.48-.37.65-.62.16-.26.28-.55.35-.88.07-.33.1-.67.1-1.03v-4.34h1.64v4.34c0,.58-.07,1.13-.21,1.64-.14.51-.36.96-.66,1.34-.3.38-.69.69-1.16.91s-1.04.34-1.69.34-1.26-.12-1.73-.35c-.48-.24-.86-.55-1.16-.94s-.51-.84-.64-1.35c-.13-.51-.2-1.04-.2-1.6v-4.34h1.66v4.34c0,.36.03.71.1,1.04.07.33.18.63.35.88s.38.46.64.62c.26.16.59.23.97.23Z"/>
        <path class="cls-4" d="m102.65,41.1c-.06-.06-.16-.13-.31-.23-.15-.1-.33-.19-.54-.28-.21-.09-.44-.17-.69-.23-.25-.06-.5-.1-.76-.1-.46,0-.8.08-1.02.25s-.34.4-.34.71c0,.18.04.32.13.44.08.12.21.22.37.31.16.09.36.17.61.24.24.07.53.15.85.23.42.11.79.23,1.13.36.34.13.63.29.86.48.24.19.42.42.55.69.13.27.19.6.19.99,0,.46-.09.85-.26,1.17-.17.32-.4.59-.7.79-.29.2-.63.35-1.01.44-.38.09-.78.14-1.19.14-.64,0-1.27-.1-1.9-.29s-1.18-.46-1.68-.82l.73-1.43c.07.07.2.17.39.28.19.12.41.23.67.35.26.12.54.21.85.29.31.08.63.12.96.12.91,0,1.37-.29,1.37-.88,0-.18-.05-.34-.16-.47-.1-.13-.25-.24-.44-.34-.19-.1-.42-.18-.7-.26s-.58-.17-.91-.26c-.41-.11-.76-.23-1.06-.37-.3-.13-.55-.29-.75-.47-.2-.18-.35-.39-.45-.62-.1-.24-.15-.52-.15-.85,0-.43.08-.82.24-1.15.16-.34.38-.62.67-.84.28-.22.61-.39.99-.51.38-.12.78-.17,1.21-.17.6,0,1.15.09,1.66.28s.94.41,1.32.67l-.73,1.34Z"/>
        <path class="cls-4" d="m116.04,40.32h-2.72v7.07h-1.64v-7.07h-2.72v-1.45h7.09v1.45Z"/>
        <path class="cls-4" d="m121.9,47.39v-8.52h3.77c.39,0,.75.08,1.09.25.33.16.62.38.86.65.24.27.43.57.56.91.14.34.2.68.2,1.03,0,.55-.14,1.05-.41,1.51-.28.45-.65.78-1.12.98l1.94,3.2h-1.86l-1.74-2.86h-1.63v2.86h-1.66Zm1.66-4.31h2.08c.15,0,.29-.04.43-.11.13-.07.25-.17.34-.29.1-.12.17-.27.23-.44.06-.17.08-.35.08-.54s-.03-.38-.1-.55c-.06-.17-.15-.31-.26-.44-.11-.12-.23-.22-.37-.29-.14-.07-.28-.1-.43-.1h-2v2.76Z"/>
        <path class="cls-4" d="m134.68,47.39v-8.52h1.66v8.52h-1.66Z"/>
        <path class="cls-4" d="m148.83,45.94v1.45h-5.92v-8.52h5.81v1.45h-4.15v2.05h3.59v1.34h-3.59v2.22h4.26Z"/>
        <path class="cls-4" d="m159.82,41.1c-.06-.06-.16-.13-.31-.23-.15-.1-.33-.19-.54-.28-.21-.09-.44-.17-.69-.23-.25-.06-.5-.1-.76-.1-.46,0-.8.08-1.02.25s-.34.4-.34.71c0,.18.04.32.13.44.08.12.21.22.37.31.16.09.36.17.61.24.24.07.53.15.85.23.42.11.79.23,1.13.36.34.13.63.29.86.48.24.19.42.42.55.69.13.27.19.6.19.99,0,.46-.09.85-.26,1.17-.17.32-.4.59-.7.79-.29.2-.63.35-1.01.44-.38.09-.78.14-1.19.14-.64,0-1.27-.1-1.9-.29s-1.18-.46-1.68-.82l.73-1.43c.07.07.2.17.39.28.19.12.41.23.67.35.26.12.54.21.85.29.31.08.63.12.96.12.91,0,1.37-.29,1.37-.88,0-.18-.05-.34-.16-.47-.1-.13-.25-.24-.44-.34-.19-.1-.42-.18-.7-.26s-.58-.17-.91-.26c-.41-.11-.76-.23-1.06-.37-.3-.13-.55-.29-.75-.47-.2-.18-.35-.39-.45-.62-.1-.24-.15-.52-.15-.85,0-.43.08-.82.24-1.15.16-.34.38-.62.67-.84.28-.22.61-.39.99-.51.38-.12.78-.17,1.21-.17.6,0,1.15.09,1.66.28s.94.41,1.32.67l-.73,1.34Z"/>
      </g>
    </g>
  </g>
</svg>