<?xml version="1.0" encoding="UTF-8"?>
<svg id="Layer_2" data-name="Layer 2" xmlns="http://www.w3.org/2000/svg" viewBox="0 0 208.52 118.44">
  <defs>
    <style>
      .cls-1 {
        fill: #214265;
      }

      .cls-1, .cls-2, .cls-3, .cls-4, .cls-5 {
        stroke-width: 0px;
      }

      .cls-2 {
        fill: #092038;
      }

      .cls-3 {
        fill: #00728b;
      }

      .cls-4 {
        fill: #fff;
      }

      .cls-6 {
        opacity: .13;
        stroke: #000;
        stroke-miterlimit: 10;
        stroke-width: .5px;
      }

      .cls-5 {
        fill: #0783a2;
      }
    </style>
  </defs>
  <g id="Layer_1-2" data-name="Layer 1">
    <g>
      <g>
        <polygon class="cls-2" points="122.96 27.95 12.51 2.5 12.51 118.2 93.56 94.64 122.96 27.95"/>
        <polygon class="cls-1" points="12.51 2.5 122.96 27.95 196.01 2.5 12.51 2.5"/>
        <polygon class="cls-3" points="12.51 118.2 196.01 118.2 93.56 94.64 12.51 118.2"/>
        <polygon class="cls-5" points="122.96 27.95 93.56 94.64 196.01 118.2 196.01 96.28 116.99 96.28 116.99 71.58 196.01 71.58 196.01 2.5 122.96 27.95"/>
        <rect class="cls-2" x="116.99" y="71.58" width="79.02" height="24.7"/>
      </g>
      <rect class="cls-6" x="12.51" y=".25" width="183.5" height="115.69"/>
      <g>
        <path class="cls-4" d="m20.15,50.51c1.64.77,3.89,1.43,6.79,1.43,1.56,0,3.34-.2,3.34-.86,0-.52-1.12-.6-2.68-.7-5.77-.37-8.44-1.34-8.44-4.09,0-3.22,3.49-4.41,7.5-4.41,2.63,0,5,.55,6.71,1.29l-1.32,3.07c-1.39-.57-3.45-1.01-5.63-1.01-1.66,0-3.22.2-3.22.86,0,.47.79.59,2.2.67,5.03.28,8.92.97,8.92,4.14,0,2.95-3.15,4.39-7.56,4.39-3.84,0-6.34-.91-8.05-1.71l1.46-3.07Z"/>
        <path class="cls-4" d="m37.56,48.58c0-3.82,3.61-6.71,9.01-6.71s8.99,2.88,8.99,6.71-3.61,6.71-8.99,6.71-9.01-2.88-9.01-6.71Zm13.8,0c0-2.05-2.18-3.27-4.8-3.27s-4.81,1.22-4.81,3.27,2.18,3.27,4.81,3.27,4.8-1.24,4.8-3.27Z"/>
        <path class="cls-4" d="m59.66,42.29h4.02v9.22h9.41v3.35h-13.43v-12.58Z"/>
        <path class="cls-4" d="m89.58,53.09h-8.99l-1.84,2.45-2.99-2.2,9.32-11.97,9.32,11.97-2.99,2.2-1.84-2.45Zm-4.49-5.95l-2.1,2.77h4.19l-2.1-2.77Z"/>
        <path class="cls-4" d="m106.29,51.33c-.5.03-1.04.05-1.59.05-.99,0-1.96-.03-2.83-.08v3.57h-4.02v-12.74c1.9-.13,4.19-.25,6.54-.25,6.93,0,9.09,2.21,9.09,4.61,0,1.59-.99,3.02-3.07,3.92l2.8,2.85-3.04,2.28-3.87-4.21Zm2.98-4.63c0-.72-1.12-1.39-4.83-1.39-.97,0-1.84.03-2.58.07v2.67c.74.03,1.61.07,2.58.07,3.71,0,4.83-.69,4.83-1.41Z"/>
        <path class="cls-4" d="m116.65,42.29h15.83v3.35h-5.84v9.22h-4.16v-9.22h-5.84v-3.35Z"/>
        <path class="cls-4" d="m150.26,54.87h-13.77v-12.58h13.78v3.35h-9.76v1.43h7.78v3.02h-7.78v1.43h9.74v3.35Z"/>
        <path class="cls-4" d="m169.22,53.78c-1.61.96-3.71,1.51-6.1,1.51-5.55,0-9.32-2.88-9.32-6.71s3.77-6.71,9.32-6.71c2.4,0,4.49.55,6.1,1.51l-1.69,2.95c-1.17-.6-2.78-1.02-4.41-1.02-2.78,0-5.13,1.22-5.13,3.27s2.35,3.27,5.13,3.27c1.63,0,3.24-.42,4.41-1.02l1.69,2.95Z"/>
        <path class="cls-4" d="m184.98,50.26h-7.71v4.61h-4.02v-12.58h4.02v4.61h7.71v-4.61h4.02v12.58h-4.02v-4.61Z"/>
      </g>
      <g>
        <path class="cls-4" d="m36.39,68.7v-10.31h2v10.31h-2Z"/>
        <path class="cls-4" d="m48.36,62.09v6.61h-2v-10.31h1.55l5.38,6.77v-6.76h2v10.3h-1.63l-5.3-6.61Z"/>
        <path class="cls-4" d="m63.25,68.7v-10.31h3.75c.84,0,1.58.14,2.22.41.63.27,1.16.64,1.59,1.1.43.47.75,1.01.96,1.63.21.62.32,1.29.32,2,0,.78-.12,1.49-.36,2.13s-.58,1.18-1.02,1.63c-.45.45-.98.8-1.6,1.05-.62.25-1.32.37-2.1.37h-3.75Zm6.81-5.17c0-.49-.07-.95-.2-1.37-.14-.42-.33-.77-.6-1.08-.26-.3-.58-.53-.97-.7-.38-.16-.82-.25-1.3-.25h-1.74v6.8h1.74c.49,0,.93-.09,1.31-.26.38-.17.7-.41.96-.72.26-.31.45-.67.59-1.08.14-.42.2-.87.2-1.35Z"/>
        <path class="cls-4" d="m83.82,67c.47,0,.87-.1,1.2-.29.32-.19.59-.45.78-.76s.34-.67.42-1.07c.08-.4.12-.82.12-1.24v-5.26h1.99v5.26c0,.71-.08,1.37-.25,1.99-.17.62-.44,1.16-.8,1.63s-.83.83-1.4,1.1c-.57.27-1.25.41-2.05.41s-1.52-.14-2.1-.43c-.58-.29-1.04-.66-1.4-1.13-.36-.47-.62-1.01-.78-1.63-.16-.62-.24-1.26-.24-1.93v-5.26h2v5.26c0,.44.04.85.12,1.26.08.4.22.76.42,1.07.2.31.46.56.78.75.32.19.71.28,1.18.28Z"/>
        <path class="cls-4" d="m102.31,61.09c-.07-.07-.19-.16-.37-.28s-.4-.23-.65-.34c-.26-.11-.54-.21-.84-.28-.3-.08-.6-.12-.92-.12-.55,0-.96.1-1.23.31-.27.2-.41.49-.41.86,0,.21.05.39.15.53.1.14.25.26.44.37.19.11.44.2.73.29.3.09.64.18,1.02.28.5.14.96.28,1.37.44.41.16.76.35,1.05.58.29.23.51.51.66.84.15.32.23.72.23,1.2,0,.55-.1,1.02-.31,1.42-.21.39-.49.71-.84.95s-.76.42-1.22.53-.94.17-1.45.17c-.78,0-1.54-.12-2.3-.35s-1.43-.56-2.03-.99l.89-1.73c.09.09.24.2.47.34.23.14.5.28.81.42.31.14.65.26,1.03.36.38.1.77.15,1.16.15,1.1,0,1.66-.35,1.66-1.06,0-.22-.06-.41-.19-.57s-.31-.29-.54-.41-.51-.22-.84-.32c-.33-.1-.7-.2-1.1-.32-.49-.14-.92-.28-1.29-.44-.36-.16-.67-.35-.91-.57-.24-.22-.42-.47-.54-.76s-.18-.63-.18-1.02c0-.52.1-.99.29-1.39s.46-.75.81-1.02c.34-.27.74-.48,1.2-.62.46-.14.94-.21,1.47-.21.73,0,1.39.11,2,.34.61.23,1.14.5,1.6.81l-.89,1.63Z"/>
        <path class="cls-4" d="m118.53,60.14h-3.3v8.56h-1.99v-8.56h-3.3v-1.76h8.59v1.76Z"/>
        <path class="cls-4" d="m125.62,68.7v-10.31h4.56c.47,0,.91.1,1.31.3.4.2.75.46,1.04.78s.52.69.68,1.1c.16.41.25.83.25,1.24,0,.67-.17,1.28-.5,1.82-.33.55-.79.94-1.36,1.18l2.35,3.88h-2.25l-2.11-3.46h-1.98v3.46h-2Zm2-5.22h2.51c.18,0,.36-.04.52-.13.16-.09.3-.21.41-.36.12-.15.21-.33.28-.53.07-.2.1-.42.1-.65s-.04-.46-.12-.67c-.08-.2-.18-.38-.31-.53-.13-.15-.28-.27-.45-.35-.17-.08-.34-.12-.52-.12h-2.43v3.34Z"/>
        <path class="cls-4" d="m141.09,68.7v-10.31h2v10.31h-2Z"/>
        <path class="cls-4" d="m158.21,66.94v1.76h-7.16v-10.31h7.03v1.76h-5.03v2.48h4.34v1.63h-4.34v2.69h5.16Z"/>
        <path class="cls-4" d="m171.52,61.09c-.07-.07-.19-.16-.37-.28s-.4-.23-.65-.34c-.26-.11-.54-.21-.84-.28-.3-.08-.6-.12-.92-.12-.55,0-.96.1-1.23.31-.27.2-.41.49-.41.86,0,.21.05.39.15.53.1.14.25.26.44.37.19.11.44.2.73.29.3.09.64.18,1.02.28.5.14.96.28,1.37.44.41.16.76.35,1.05.58.29.23.51.51.66.84.15.32.23.72.23,1.2,0,.55-.1,1.02-.31,1.42-.21.39-.49.71-.84.95s-.76.42-1.22.53-.94.17-1.45.17c-.78,0-1.54-.12-2.3-.35s-1.43-.56-2.03-.99l.89-1.73c.09.09.24.2.47.34.23.14.5.28.81.42.31.14.65.26,1.03.36.38.1.77.15,1.16.15,1.1,0,1.66-.35,1.66-1.06,0-.22-.06-.41-.19-.57s-.31-.29-.54-.41-.51-.22-.84-.32c-.33-.1-.7-.2-1.1-.32-.49-.14-.92-.28-1.29-.44-.36-.16-.67-.35-.91-.57-.24-.22-.42-.47-.54-.76s-.18-.63-.18-1.02c0-.52.1-.99.29-1.39s.46-.75.81-1.02c.34-.27.74-.48,1.2-.62.46-.14.94-.21,1.47-.21.73,0,1.39.11,2,.34.61.23,1.14.5,1.6.81l-.89,1.63Z"/>
      </g>
    </g>
  </g>
</svg>