<?xml version="1.0" encoding="UTF-8"?>
<svg id="Layer_2" data-name="Layer 2" xmlns="http://www.w3.org/2000/svg" viewBox="0 0 186.6 154.74">
  <defs>
    <style>
      .cls-1 {
        fill: #214265;
      }

      .cls-1, .cls-2, .cls-3, .cls-4, .cls-5 {
        stroke-width: 0px;
      }

      .cls-2 {
        fill: #092038;
      }

      .cls-3 {
        fill: #00728b;
      }

      .cls-4 {
        fill: #fff;
      }

      .cls-6 {
        opacity: .13;
        stroke: #000;
        stroke-miterlimit: 10;
        stroke-width: .5px;
      }

      .cls-5 {
        fill: #1984a9;
      }
    </style>
  </defs>
  <g id="Layer_1-2" data-name="Layer 1">
    <g>
      <g>
        <polygon class="cls-5" points="175.41 .25 110.03 34.19 83.72 123.1 175.41 154.49 175.41 125.27 104.69 125.27 104.69 92.34 175.41 92.34 175.41 .25"/>
        <rect class="cls-2" x="104.69" y="92.34" width="70.71" height="32.93"/>
        <polygon class="cls-1" points="110.03 34.19 175.41 .25 11.2 .25 110.03 34.19"/>
        <polygon class="cls-3" points="11.2 154.49 175.41 154.49 83.72 123.1 11.2 154.49"/>
        <polygon class="cls-2" points="110.03 34.19 11.2 .25 11.2 154.49 83.72 123.1 110.03 34.19"/>
      </g>
      <rect class="cls-6" x="11.19" y=".25" width="164.21" height="154.24"/>
      <g>
        <path class="cls-4" d="m18.03,66.96c1.47.69,3.48,1.27,6.08,1.27,1.39,0,2.98-.18,2.98-.76,0-.46-1-.54-2.4-.63-5.16-.33-7.54-1.2-7.54-3.66,0-2.88,3.12-3.95,6.7-3.95,2.35,0,4.47.5,6,1.16l-1.18,2.75c-1.25-.51-3.09-.9-5.04-.9-1.49,0-2.88.18-2.88.77,0,.42.7.52,1.96.6,4.5.25,7.98.87,7.98,3.71,0,2.64-2.82,3.93-6.77,3.93-3.44,0-5.67-.81-7.2-1.53l1.3-2.74Z"/>
        <path class="cls-4" d="m33.61,65.23c0-3.42,3.22-6,8.05-6s8.04,2.58,8.04,6-3.23,6-8.04,6-8.05-2.58-8.05-6Zm12.34,0c0-1.83-1.95-2.92-4.29-2.92s-4.3,1.09-4.3,2.92,1.95,2.92,4.3,2.92,4.29-1.11,4.29-2.92Z"/>
        <path class="cls-4" d="m53.38,59.61h3.6v8.25h8.42v3h-12.01v-11.25Z"/>
        <path class="cls-4" d="m80.16,69.27h-8.04l-1.65,2.19-2.67-1.96,8.34-10.71,8.34,10.71-2.67,1.96-1.65-2.19Zm-4.02-5.33l-1.88,2.48h3.75l-1.88-2.48Z"/>
        <path class="cls-4" d="m95.11,67.69c-.45.03-.93.04-1.42.04-.88,0-1.75-.03-2.54-.08v3.2h-3.6v-11.4c1.7-.12,3.75-.23,5.85-.23,6.2,0,8.13,1.98,8.13,4.12,0,1.42-.88,2.7-2.75,3.51l2.5,2.55-2.71,2.04-3.46-3.76Zm2.67-4.14c0-.64-1-1.25-4.32-1.25-.87,0-1.65.03-2.31.06v2.38c.66.03,1.44.06,2.31.06,3.31,0,4.32-.62,4.32-1.26Z"/>
        <path class="cls-4" d="m104.38,59.61h14.16v3h-5.22v8.25h-3.72v-8.25h-5.22v-3Z"/>
        <path class="cls-4" d="m134.46,70.86h-12.31v-11.25h12.33v3h-8.73v1.28h6.96v2.7h-6.96v1.27h8.71v3Z"/>
        <path class="cls-4" d="m151.42,69.88c-1.44.85-3.32,1.35-5.46,1.35-4.96,0-8.34-2.58-8.34-6s3.38-6,8.34-6c2.14,0,4.02.5,5.46,1.35l-1.52,2.64c-1.05-.54-2.49-.92-3.94-.92-2.49,0-4.59,1.09-4.59,2.92s2.1,2.92,4.59,2.92c1.46,0,2.89-.38,3.94-.92l1.52,2.64Z"/>
        <path class="cls-4" d="m165.52,66.73h-6.9v4.12h-3.6v-11.25h3.6v4.12h6.9v-4.12h3.6v11.25h-3.6v-4.12Z"/>
      </g>
      <g>
        <path class="cls-4" d="m32.56,83.24v-9.23h1.79v9.23h-1.79Z"/>
        <path class="cls-4" d="m43.28,77.32v5.92h-1.79v-9.23h1.39l4.81,6.06v-6.04h1.79v9.22h-1.46l-4.75-5.92Z"/>
        <path class="cls-4" d="m56.6,83.24v-9.23h3.35c.75,0,1.41.12,1.98.36.57.24,1.04.57,1.42.99.38.42.67.9.86,1.46.19.56.29,1.15.29,1.79,0,.7-.11,1.34-.32,1.9-.21.57-.52,1.05-.92,1.46s-.88.71-1.44.94c-.56.22-1.19.33-1.88.33h-3.35Zm6.1-4.63c0-.44-.06-.85-.18-1.22-.12-.37-.3-.69-.53-.96-.23-.27-.52-.48-.86-.62-.34-.15-.73-.22-1.16-.22h-1.56v6.08h1.56c.44,0,.83-.08,1.18-.23.34-.16.63-.37.86-.64.23-.27.41-.6.53-.97s.18-.78.18-1.21Z"/>
        <path class="cls-4" d="m75.01,81.71c.42,0,.78-.09,1.07-.26.29-.17.52-.4.7-.68s.3-.6.38-.96c.07-.36.11-.73.11-1.11v-4.71h1.78v4.71c0,.63-.08,1.23-.23,1.78-.15.55-.39,1.04-.71,1.46-.33.42-.74.75-1.25.99-.51.24-1.12.36-1.83.36s-1.36-.13-1.88-.38-.93-.59-1.25-1.01c-.32-.42-.55-.91-.7-1.46-.14-.55-.21-1.13-.21-1.73v-4.71h1.79v4.71c0,.39.04.77.11,1.12s.2.68.38.96.41.5.7.67c.29.17.64.25,1.05.25Z"/>
        <path class="cls-4" d="m91.56,76.42c-.06-.06-.17-.14-.33-.25-.16-.1-.36-.21-.58-.31-.23-.1-.48-.18-.75-.25s-.54-.1-.82-.1c-.49,0-.86.09-1.1.27-.24.18-.36.44-.36.77,0,.19.05.35.14.47.09.12.22.24.4.33.17.1.39.18.66.26s.57.16.92.25c.45.12.86.25,1.23.39.37.14.68.31.94.52s.45.46.59.75c.14.29.21.65.21,1.07,0,.49-.09.92-.28,1.27-.19.35-.44.63-.75.85-.32.22-.68.37-1.09.47-.41.1-.84.15-1.29.15-.69,0-1.38-.1-2.05-.31-.68-.21-1.28-.5-1.82-.88l.79-1.55c.08.08.22.18.42.3.2.13.44.25.72.38.28.12.58.23.92.32.34.09.68.13,1.04.13.99,0,1.48-.32,1.48-.95,0-.2-.06-.37-.17-.51s-.27-.26-.48-.36c-.21-.1-.46-.2-.75-.29-.29-.09-.62-.18-.99-.29-.44-.12-.83-.25-1.15-.4-.33-.14-.6-.31-.81-.51-.22-.19-.38-.42-.49-.68s-.16-.56-.16-.92c0-.47.09-.88.26-1.25.17-.36.41-.67.72-.91.31-.24.67-.43,1.07-.55s.84-.19,1.31-.19c.65,0,1.25.1,1.79.31.55.2,1.02.44,1.43.72l-.79,1.46Z"/>
        <path class="cls-4" d="m106.07,75.58h-2.95v7.66h-1.78v-7.66h-2.95v-1.57h7.68v1.57Z"/>
        <path class="cls-4" d="m112.41,83.24v-9.23h4.08c.42,0,.82.09,1.18.27.36.18.67.41.93.7.26.29.46.62.61.99s.22.74.22,1.11c0,.6-.15,1.14-.45,1.63-.3.49-.7.84-1.21,1.06l2.11,3.47h-2.01l-1.88-3.09h-1.77v3.09h-1.79Zm1.79-4.67h2.25c.17,0,.32-.04.46-.12.14-.08.27-.18.37-.32.1-.13.19-.29.25-.47.06-.18.09-.38.09-.58s-.03-.42-.1-.6c-.07-.18-.16-.34-.28-.47-.12-.13-.25-.24-.4-.31-.15-.07-.31-.11-.46-.11h-2.17v2.99Z"/>
        <path class="cls-4" d="m126.25,83.24v-9.23h1.79v9.23h-1.79Z"/>
        <path class="cls-4" d="m141.58,81.66v1.57h-6.41v-9.23h6.29v1.57h-4.5v2.22h3.89v1.46h-3.89v2.4h4.62Z"/>
        <path class="cls-4" d="m153.49,76.42c-.06-.06-.17-.14-.33-.25-.16-.1-.36-.21-.58-.31-.23-.1-.48-.18-.75-.25s-.54-.1-.82-.1c-.49,0-.86.09-1.1.27-.24.18-.36.44-.36.77,0,.19.05.35.14.47.09.12.22.24.4.33.17.1.39.18.66.26s.57.16.92.25c.45.12.86.25,1.23.39.37.14.68.31.94.52s.45.46.59.75c.14.29.21.65.21,1.07,0,.49-.09.92-.28,1.27-.19.35-.44.63-.75.85-.32.22-.68.37-1.09.47-.41.1-.84.15-1.29.15-.69,0-1.38-.1-2.05-.31-.68-.21-1.28-.5-1.82-.88l.79-1.55c.08.08.22.18.42.3.2.13.44.25.72.38.28.12.58.23.92.32.34.09.68.13,1.04.13.99,0,1.48-.32,1.48-.95,0-.2-.06-.37-.17-.51s-.27-.26-.48-.36c-.21-.1-.46-.2-.75-.29-.29-.09-.62-.18-.99-.29-.44-.12-.83-.25-1.15-.4-.33-.14-.6-.31-.81-.51-.22-.19-.38-.42-.49-.68s-.16-.56-.16-.92c0-.47.09-.88.26-1.25.17-.36.41-.67.72-.91.31-.24.67-.43,1.07-.55s.84-.19,1.31-.19c.65,0,1.25.1,1.79.31.55.2,1.02.44,1.43.72l-.79,1.46Z"/>
      </g>
    </g>
  </g>
</svg>