<?xml version="1.0" encoding="UTF-8"?>
<svg id="Layer_2" data-name="Layer 2" xmlns="http://www.w3.org/2000/svg" viewBox="0 0 187.88 85.96">
  <defs>
    <style>
      .cls-1 {
        fill: #214265;
      }

      .cls-1, .cls-2, .cls-3, .cls-4, .cls-5 {
        stroke-width: 0px;
      }

      .cls-2 {
        fill: #092038;
      }

      .cls-3 {
        fill: #00728b;
      }

      .cls-4 {
        fill: #fff;
      }

      .cls-5 {
        fill: #6cf;
      }
    </style>
  </defs>
  <g id="Layer_1-2" data-name="Layer 1">
    <g>
      <g>
        <polygon class="cls-2" points=".25 .25 .25 85.71 140.69 66.55 151.53 29.23 153.84 21.27 .25 .25"/>
        <polygon class="cls-1" points=".25 .25 153.84 21.27 187.63 .25 .25 .25"/>
        <polygon class="cls-3" points=".25 85.71 187.63 85.71 140.69 66.55 .25 85.71"/>
        <polygon class="cls-5" points="151.53 29.23 140.69 66.55 187.63 85.71 187.63 58.94 155.24 58.94 155.24 45.61 187.63 45.61 187.63 42.98 155.24 42.98 155.24 29.66 151.53 29.23"/>
        <polygon class="cls-5" points="153.84 21.27 151.53 29.23 155.24 29.66 187.63 29.66 187.63 .25 153.84 21.27"/>
        <rect class="cls-2" x="155.24" y="45.61" width="32.39" height="13.32"/>
        <rect class="cls-2" x="155.24" y="29.66" width="32.39" height="13.32"/>
      </g>
      <g>
        <path class="cls-4" d="m7.58,38.13c1.37.64,3.25,1.19,5.67,1.19,1.3,0,2.79-.17,2.79-.71,0-.43-.94-.5-2.24-.59-4.82-.31-7.05-1.12-7.05-3.42,0-2.69,2.91-3.68,6.26-3.68,2.2,0,4.17.46,5.6,1.08l-1.11,2.56c-1.16-.48-2.89-.84-4.71-.84-1.39,0-2.69.17-2.69.71,0,.39.66.49,1.83.56,4.2.24,7.45.81,7.45,3.46,0,2.46-2.63,3.67-6.32,3.67-3.21,0-5.29-.76-6.72-1.43l1.22-2.56Z"/>
        <path class="cls-4" d="m21.21,36.52c0-3.19,3.01-5.6,7.52-5.6s7.51,2.41,7.51,5.6-3.01,5.6-7.51,5.6-7.52-2.41-7.52-5.6Zm11.53,0c0-1.71-1.82-2.73-4.01-2.73s-4.02,1.02-4.02,2.73,1.82,2.73,4.02,2.73,4.01-1.04,4.01-2.73Z"/>
        <path class="cls-4" d="m38.75,31.26h3.36v7.7h7.86v2.8h-11.22v-10.51Z"/>
        <path class="cls-4" d="m62.84,40.29h-7.51l-1.54,2.04-2.49-1.83,7.79-10,7.79,10-2.49,1.83-1.54-2.04Zm-3.75-4.97l-1.75,2.31h3.5l-1.75-2.31Z"/>
        <path class="cls-4" d="m75.89,38.81c-.42.03-.87.04-1.33.04-.83,0-1.64-.03-2.37-.07v2.98h-3.36v-10.65c1.58-.11,3.5-.21,5.46-.21,5.79,0,7.59,1.85,7.59,3.85,0,1.33-.83,2.52-2.56,3.28l2.34,2.38-2.54,1.91-3.24-3.52Zm2.49-3.87c0-.6-.94-1.16-4.03-1.16-.81,0-1.54.03-2.16.06v2.23c.62.03,1.34.06,2.16.06,3.1,0,4.03-.57,4.03-1.18Z"/>
        <path class="cls-4" d="m83.62,31.26h13.22v2.8h-4.88v7.7h-3.47v-7.7h-4.88v-2.8Z"/>
        <path class="cls-4" d="m110.79,41.77h-11.5v-10.51h11.51v2.8h-8.15v1.19h6.5v2.52h-6.5v1.19h8.14v2.8Z"/>
        <path class="cls-4" d="m125.71,40.86c-1.34.8-3.1,1.26-5.1,1.26-4.64,0-7.79-2.41-7.79-5.6s3.15-5.6,7.79-5.6c2,0,3.75.46,5.1,1.26l-1.41,2.46c-.98-.5-2.33-.85-3.68-.85-2.33,0-4.29,1.02-4.29,2.73s1.96,2.73,4.29,2.73c1.36,0,2.7-.35,3.68-.85l1.41,2.47Z"/>
        <path class="cls-4" d="m137.96,37.92h-6.44v3.85h-3.36v-10.51h3.36v3.85h6.44v-3.85h3.36v10.51h-3.36v-3.85Z"/>
      </g>
      <g>
        <path class="cls-4" d="m8.78,56.46v-9.94h1.93v9.94h-1.93Z"/>
        <path class="cls-4" d="m20.32,50.09v6.37h-1.93v-9.94h1.5l5.18,6.52v-6.51h1.93v9.93h-1.57l-5.11-6.37Z"/>
        <path class="cls-4" d="m34.67,56.46v-9.94h3.61c.81,0,1.52.13,2.13.39s1.12.62,1.53,1.06c.41.45.72.97.92,1.58.21.6.31,1.24.31,1.92,0,.76-.11,1.44-.34,2.05s-.56,1.13-.99,1.57c-.43.43-.94.77-1.55,1.01-.6.24-1.28.36-2.02.36h-3.61Zm6.57-4.98c0-.48-.07-.91-.2-1.32-.13-.4-.32-.75-.57-1.04s-.56-.51-.93-.67c-.37-.16-.79-.24-1.25-.24h-1.68v6.55h1.68c.48,0,.9-.08,1.27-.25.37-.17.68-.4.92-.69s.44-.64.57-1.04c.13-.4.2-.84.2-1.3Z"/>
        <path class="cls-4" d="m54.49,54.83c.46,0,.84-.09,1.15-.28s.57-.43.76-.73c.19-.3.33-.64.41-1.03s.12-.79.12-1.2v-5.07h1.92v5.07c0,.68-.08,1.32-.25,1.92-.16.6-.42,1.12-.77,1.57-.35.45-.8.8-1.35,1.06-.55.26-1.21.39-1.97.39s-1.47-.14-2.02-.41c-.55-.28-1.01-.64-1.35-1.09-.35-.45-.59-.98-.75-1.58s-.23-1.22-.23-1.86v-5.07h1.93v5.07c0,.42.04.82.12,1.21.08.39.21.73.41,1.03s.44.54.75.72c.31.18.69.27,1.13.27Z"/>
        <path class="cls-4" d="m72.31,49.13c-.07-.07-.18-.15-.36-.27-.17-.11-.38-.22-.63-.33s-.52-.2-.8-.27c-.29-.07-.58-.11-.88-.11-.53,0-.93.1-1.19.29-.26.2-.39.47-.39.83,0,.21.05.38.15.51.1.13.24.25.43.36.19.1.42.2.71.28.28.08.61.17.99.27.49.13.93.27,1.32.42.4.15.73.34,1.01.56.28.22.49.49.64.8.15.31.22.7.22,1.16,0,.53-.1.99-.3,1.37-.2.38-.47.68-.81.92s-.73.4-1.18.51-.91.16-1.39.16c-.75,0-1.48-.11-2.21-.34-.73-.22-1.38-.54-1.96-.95l.85-1.67c.08.08.24.19.46.33.22.13.48.27.78.41.3.14.63.25.99.34.36.09.74.14,1.12.14,1.06,0,1.6-.34,1.6-1.02,0-.21-.06-.4-.18-.55-.12-.15-.29-.28-.52-.39-.22-.11-.5-.21-.81-.31-.32-.09-.67-.2-1.06-.31-.48-.13-.89-.27-1.24-.43s-.64-.34-.88-.55-.41-.45-.53-.73c-.12-.27-.17-.6-.17-.99,0-.5.09-.95.28-1.34.19-.39.45-.72.78-.98.33-.26.72-.46,1.15-.59.44-.14.91-.2,1.41-.2.7,0,1.34.11,1.93.33.59.22,1.1.48,1.54.78l-.85,1.57Z"/>
        <path class="cls-4" d="m87.93,48.22h-3.18v8.25h-1.92v-8.25h-3.18v-1.69h8.27v1.69Z"/>
        <path class="cls-4" d="m94.77,56.46v-9.94h4.4c.46,0,.88.1,1.27.29.39.19.72.44,1,.76.28.31.5.67.66,1.06.16.4.24.8.24,1.2,0,.64-.16,1.23-.48,1.76-.32.53-.76.91-1.31,1.14l2.27,3.74h-2.17l-2.03-3.33h-1.9v3.33h-1.93Zm1.93-5.03h2.42c.18,0,.34-.04.5-.13.15-.08.29-.2.4-.34s.2-.31.27-.51.1-.41.1-.63-.04-.45-.11-.64c-.08-.2-.17-.37-.3-.51s-.27-.26-.43-.34-.33-.12-.5-.12h-2.34v3.22Z"/>
        <path class="cls-4" d="m109.68,56.46v-9.94h1.93v9.94h-1.93Z"/>
        <path class="cls-4" d="m126.18,54.77v1.69h-6.9v-9.94h6.78v1.69h-4.84v2.39h4.19v1.57h-4.19v2.59h4.97Z"/>
        <path class="cls-4" d="m139.01,49.13c-.07-.07-.18-.15-.36-.27-.17-.11-.38-.22-.63-.33s-.52-.2-.8-.27c-.29-.07-.58-.11-.88-.11-.53,0-.93.1-1.19.29-.26.2-.39.47-.39.83,0,.21.05.38.15.51.1.13.24.25.43.36.19.1.42.2.71.28.28.08.61.17.99.27.49.13.93.27,1.32.42.4.15.73.34,1.01.56.28.22.49.49.64.8.15.31.22.7.22,1.16,0,.53-.1.99-.3,1.37-.2.38-.47.68-.81.92s-.73.4-1.18.51-.91.16-1.39.16c-.75,0-1.48-.11-2.21-.34-.73-.22-1.38-.54-1.96-.95l.85-1.67c.08.08.24.19.46.33.22.13.48.27.78.41.3.14.63.25.99.34.36.09.74.14,1.12.14,1.06,0,1.6-.34,1.6-1.02,0-.21-.06-.4-.18-.55-.12-.15-.29-.28-.52-.39-.22-.11-.5-.21-.81-.31-.32-.09-.67-.2-1.06-.31-.48-.13-.89-.27-1.24-.43s-.64-.34-.88-.55-.41-.45-.53-.73c-.12-.27-.17-.6-.17-.99,0-.5.09-.95.28-1.34.19-.39.45-.72.78-.98.33-.26.72-.46,1.15-.59.44-.14.91-.2,1.41-.2.7,0,1.34.11,1.93.33.59.22,1.1.48,1.54.78l-.85,1.57Z"/>
      </g>
    </g>
  </g>
</svg>