<?xml version="1.0" encoding="UTF-8"?>
<svg id="Layer_2" data-name="Layer 2" xmlns="http://www.w3.org/2000/svg" viewBox="0 0 187.88 75.59">
  <defs>
    <style>
      .cls-1 {
        fill: #214265;
      }

      .cls-1, .cls-2, .cls-3, .cls-4, .cls-5 {
        stroke-width: 0px;
      }

      .cls-2 {
        fill: #092038;
      }

      .cls-3 {
        fill: #00728b;
      }

      .cls-4 {
        fill: #fff;
      }

      .cls-5 {
        fill: #6cf;
      }
    </style>
  </defs>
  <g id="Layer_1-2" data-name="Layer 1">
    <g>
      <g>
        <polygon class="cls-1" points="18.67 23.16 .25 .25 187.63 .25 18.67 23.16"/>
        <polygon class="cls-2" points="187.63 75.34 26.1 60.52 18.67 23.16 187.63 .25 187.63 75.34"/>
        <polygon class="cls-5" points=".25 .25 18.67 23.16 26.1 60.52 .25 75.34 .25 .25"/>
        <polygon class="cls-3" points="187.63 75.34 .25 75.34 26.1 60.52 187.63 75.34"/>
      </g>
      <g>
        <path class="cls-4" d="m35.04,33.91c1.47.69,3.48,1.27,6.08,1.27,1.39,0,2.98-.18,2.98-.76,0-.46-1-.54-2.4-.63-5.16-.33-7.54-1.2-7.54-3.66,0-2.88,3.12-3.95,6.71-3.95,2.35,0,4.47.5,6,1.16l-1.18,2.75c-1.25-.51-3.09-.9-5.04-.9-1.48,0-2.88.18-2.88.77,0,.42.71.52,1.96.6,4.5.25,7.98.87,7.98,3.71,0,2.64-2.82,3.93-6.77,3.93-3.43,0-5.67-.81-7.2-1.53l1.3-2.74Z"/>
        <path class="cls-4" d="m49.65,32.18c0-3.42,3.22-6,8.05-6s8.04,2.58,8.04,6-3.23,6-8.04,6-8.05-2.58-8.05-6Zm12.34,0c0-1.83-1.95-2.92-4.29-2.92s-4.3,1.09-4.3,2.92,1.95,2.92,4.3,2.92,4.29-1.11,4.29-2.92Z"/>
        <path class="cls-4" d="m68.44,26.56h3.6v8.25h8.42v3h-12.01v-11.25Z"/>
        <path class="cls-4" d="m94.24,36.22h-8.04l-1.65,2.19-2.67-1.96,8.34-10.71,8.34,10.71-2.67,1.96-1.65-2.19Zm-4.02-5.33l-1.88,2.48h3.75l-1.88-2.48Z"/>
        <path class="cls-4" d="m108.22,34.64c-.45.03-.93.04-1.42.04-.88,0-1.75-.03-2.54-.08v3.2h-3.6v-11.4c1.7-.12,3.75-.23,5.85-.23,6.2,0,8.13,1.98,8.13,4.12,0,1.42-.88,2.7-2.75,3.51l2.5,2.55-2.71,2.04-3.46-3.76Zm2.67-4.14c0-.64-1-1.25-4.32-1.25-.87,0-1.65.03-2.31.06v2.38c.66.03,1.44.06,2.31.06,3.31,0,4.32-.62,4.32-1.26Z"/>
        <path class="cls-4" d="m116.52,26.56h14.16v3h-5.22v8.25h-3.72v-8.25h-5.22v-3Z"/>
        <path class="cls-4" d="m145.62,37.81h-12.31v-11.25h12.33v3h-8.73v1.28h6.96v2.7h-6.96v1.27h8.71v3Z"/>
        <path class="cls-4" d="m161.61,36.84c-1.44.85-3.32,1.35-5.46,1.35-4.96,0-8.34-2.58-8.34-6s3.38-6,8.34-6c2.14,0,4.02.5,5.46,1.35l-1.52,2.64c-1.05-.54-2.49-.92-3.94-.92-2.49,0-4.59,1.09-4.59,2.92s2.1,2.92,4.59,2.92c1.46,0,2.89-.38,3.94-.92l1.52,2.64Z"/>
        <path class="cls-4" d="m174.73,33.68h-6.9v4.12h-3.6v-11.25h3.6v4.12h6.9v-4.12h3.6v11.25h-3.6v-4.12Z"/>
      </g>
      <g>
        <path class="cls-4" d="m36.33,52.46v-10.65h2.07v10.65h-2.07Z"/>
        <path class="cls-4" d="m48.69,45.63v6.83h-2.07v-10.65h1.6l5.55,6.99v-6.97h2.07v10.63h-1.68l-5.48-6.83Z"/>
        <path class="cls-4" d="m64.06,52.46v-10.65h3.87c.87,0,1.63.14,2.29.42.65.28,1.2.66,1.64,1.14.44.48.77,1.04.99,1.69.22.64.33,1.33.33,2.06,0,.81-.12,1.54-.37,2.2-.25.66-.6,1.21-1.06,1.68-.46.47-1.01.83-1.66,1.08-.64.25-1.37.38-2.17.38h-3.87Zm7.03-5.34c0-.51-.07-.98-.21-1.41-.14-.43-.34-.8-.61-1.11-.27-.31-.6-.55-1-.72-.39-.17-.84-.25-1.34-.25h-1.8v7.02h1.8c.51,0,.96-.09,1.36-.27.39-.18.72-.43.99-.74.27-.32.47-.69.61-1.12.14-.43.21-.89.21-1.39Z"/>
        <path class="cls-4" d="m85.3,50.7c.49,0,.9-.1,1.24-.3s.6-.46.81-.78.35-.69.44-1.1.13-.84.13-1.28v-5.43h2.06v5.43c0,.73-.09,1.42-.26,2.05s-.45,1.2-.83,1.68c-.38.48-.86.86-1.45,1.14-.59.28-1.29.42-2.12.42s-1.57-.15-2.17-.44c-.59-.29-1.08-.69-1.45-1.17-.37-.49-.64-1.05-.8-1.69-.16-.64-.25-1.31-.25-2v-5.43h2.07v5.43c0,.45.04.88.13,1.3.08.42.23.78.44,1.1.2.32.47.58.8.77.33.2.74.29,1.22.29Z"/>
        <path class="cls-4" d="m104.4,44.6c-.07-.07-.2-.17-.38-.28-.18-.12-.41-.24-.67-.35-.26-.12-.55-.21-.86-.29-.31-.08-.62-.12-.95-.12-.57,0-1,.11-1.27.32-.28.21-.42.5-.42.88,0,.22.05.4.16.55.1.14.26.27.46.38.2.11.45.21.76.3.3.09.66.19,1.06.29.52.14.99.29,1.42.45s.79.36,1.08.6c.29.24.52.53.68.86s.24.75.24,1.24c0,.57-.11,1.06-.32,1.46-.22.4-.51.73-.87.98-.37.25-.79.43-1.26.55-.48.12-.97.17-1.49.17-.8,0-1.59-.12-2.37-.36-.78-.24-1.48-.58-2.1-1.02l.92-1.79c.09.09.25.21.49.35s.51.29.83.43c.32.15.67.27,1.06.37.39.1.79.15,1.2.15,1.14,0,1.71-.36,1.71-1.09,0-.23-.07-.42-.2-.58s-.31-.3-.55-.42-.53-.23-.87-.33-.72-.21-1.14-.33c-.51-.14-.95-.29-1.33-.46-.38-.17-.69-.36-.94-.59-.25-.22-.44-.48-.56-.78s-.19-.65-.19-1.06c0-.54.1-1.02.3-1.44.2-.42.48-.77.83-1.05.35-.28.77-.49,1.24-.64.47-.14.98-.22,1.52-.22.75,0,1.44.12,2.07.35.63.23,1.18.51,1.65.83l-.92,1.68Z"/>
        <path class="cls-4" d="m121.14,43.62h-3.41v8.83h-2.05v-8.83h-3.41v-1.82h8.87v1.82Z"/>
        <path class="cls-4" d="m128.46,52.46v-10.65h4.71c.49,0,.94.1,1.36.31.42.21.77.48,1.07.81s.54.71.71,1.14.25.85.25,1.28c0,.69-.17,1.32-.52,1.88-.34.57-.81.97-1.4,1.22l2.43,4h-2.33l-2.17-3.57h-2.04v3.57h-2.07Zm2.07-5.38h2.6c.19,0,.37-.04.53-.13.17-.09.31-.21.43-.37.12-.15.21-.34.28-.55.07-.21.11-.44.11-.68s-.04-.48-.12-.69-.19-.39-.32-.55c-.13-.15-.29-.27-.46-.36-.18-.08-.35-.13-.53-.13h-2.5v3.45Z"/>
        <path class="cls-4" d="m144.43,52.46v-10.65h2.07v10.65h-2.07Z"/>
        <path class="cls-4" d="m162.12,50.64v1.82h-7.39v-10.65h7.26v1.82h-5.19v2.57h4.49v1.68h-4.49v2.77h5.33Z"/>
        <path class="cls-4" d="m175.86,44.6c-.07-.07-.2-.17-.38-.28-.18-.12-.41-.24-.67-.35-.26-.12-.55-.21-.86-.29-.31-.08-.62-.12-.95-.12-.57,0-1,.11-1.27.32-.28.21-.42.5-.42.88,0,.22.05.4.16.55.1.14.26.27.46.38.2.11.45.21.76.3.3.09.66.19,1.06.29.52.14.99.29,1.42.45s.79.36,1.08.6c.29.24.52.53.68.86s.24.75.24,1.24c0,.57-.11,1.06-.32,1.46-.22.4-.51.73-.87.98-.37.25-.79.43-1.26.55-.48.12-.97.17-1.49.17-.8,0-1.59-.12-2.37-.36-.78-.24-1.48-.58-2.1-1.02l.92-1.79c.09.09.25.21.49.35s.51.29.83.43c.32.15.67.27,1.06.37.39.1.79.15,1.2.15,1.14,0,1.71-.36,1.71-1.09,0-.23-.07-.42-.2-.58s-.31-.3-.55-.42-.53-.23-.87-.33-.72-.21-1.14-.33c-.51-.14-.95-.29-1.33-.46-.38-.17-.69-.36-.94-.59-.25-.22-.44-.48-.56-.78s-.19-.65-.19-1.06c0-.54.1-1.02.3-1.44.2-.42.48-.77.83-1.05.35-.28.77-.49,1.24-.64.47-.14.98-.22,1.52-.22.75,0,1.44.12,2.07.35.63.23,1.18.51,1.65.83l-.92,1.68Z"/>
      </g>
      <rect class="cls-2" x=".25" y="25.32" width="13.91" height="29.11"/>
    </g>
  </g>
</svg>