<?xml version="1.0" encoding="UTF-8"?>
<svg id="Layer_2" data-name="Layer 2" xmlns="http://www.w3.org/2000/svg" viewBox="0 0 166.73 78.26">
  <defs>
    <style>
      .cls-1 {
        fill: #214265;
      }

      .cls-1, .cls-2, .cls-3, .cls-4, .cls-5, .cls-6 {
        stroke-width: 0px;
      }

      .cls-2 {
        fill: #092038;
      }

      .cls-3 {
        fill: #00728b;
      }

      .cls-4 {
        fill: #fff;
      }

      .cls-5 {
        fill: #afffff;
      }

      .cls-6 {
        fill: #6cf;
      }
    </style>
  </defs>
  <g id="Layer_1-2" data-name="Layer 1">
    <g>
      <g>
        <polygon class="cls-2" points="166.49 .25 166.49 78.01 34.09 63.66 27.49 18.54 166.49 .25"/>
        <polygon class="cls-1" points="166.49 .25 27.49 18.54 .43 .25 166.49 .25"/>
        <polygon class="cls-3" points="166.49 78.01 .43 78.01 34.09 63.66 166.49 78.01"/>
        <polygon class="cls-6" points="27.49 18.54 34.09 63.66 .43 78.01 .24 78.01 .24 59.37 20.14 59.37 20.14 22.6 .24 22.6 .24 .25 .43 .25 27.49 18.54"/>
        <rect class="cls-2" x=".24" y="22.6" width="19.9" height="36.77"/>
      </g>
      <g>
        <path class="cls-4" d="m52.35,27.95c-.12-.12-.34-.29-.66-.49-.32-.21-.71-.41-1.17-.61-.46-.2-.96-.37-1.49-.51-.54-.14-1.08-.21-1.63-.21-.99,0-1.72.18-2.21.54s-.73.87-.73,1.53c0,.38.09.7.27.95.18.25.45.47.79.66.35.19.78.36,1.31.52.53.16,1.14.32,1.83.49.9.24,1.72.5,2.45.78.73.28,1.36.62,1.87,1.04s.9.91,1.18,1.49c.28.58.42,1.29.42,2.14,0,.99-.19,1.83-.56,2.53-.37.7-.87,1.27-1.5,1.7-.63.43-1.36.75-2.18.95-.82.2-1.68.3-2.58.3-1.38,0-2.75-.21-4.1-.62s-2.56-1-3.63-1.76l1.58-3.09c.16.16.44.36.84.61.41.25.89.5,1.44.75.55.25,1.17.46,1.84.64.67.17,1.37.26,2.08.26,1.97,0,2.96-.63,2.96-1.89,0-.4-.11-.73-.34-1.01-.23-.28-.54-.52-.96-.73s-.92-.4-1.5-.57c-.59-.17-1.25-.36-1.97-.57-.88-.24-1.65-.51-2.3-.79-.65-.29-1.19-.62-1.62-1.01-.43-.39-.76-.84-.97-1.35s-.32-1.12-.32-1.83c0-.93.17-1.76.52-2.49.35-.73.83-1.33,1.44-1.82.61-.48,1.33-.85,2.14-1.1.81-.25,1.69-.38,2.62-.38,1.3,0,2.49.2,3.58.61,1.09.41,2.04.89,2.85,1.44l-1.58,2.91Z"/>
        <path class="cls-4" d="m63.23,41.8c-1.11,0-2.1-.19-2.98-.57-.88-.38-1.63-.9-2.24-1.54-.61-.65-1.09-1.4-1.41-2.24-.33-.85-.49-1.74-.49-2.67s.16-1.85.49-2.7c.33-.85.8-1.6,1.41-2.24.61-.65,1.36-1.16,2.24-1.54.88-.38,1.88-.57,2.98-.57s2.1.19,2.97.57c.87.38,1.62.9,2.23,1.54.61.65,1.08,1.4,1.41,2.24.33.85.49,1.75.49,2.7s-.16,1.83-.49,2.67c-.33.85-.8,1.6-1.4,2.24-.61.65-1.35,1.16-2.23,1.54-.88.38-1.88.57-2.98.57Zm-3.55-7.03c0,.61.09,1.15.27,1.65.18.49.43.92.75,1.28.32.36.7.64,1.13.84.43.2.9.3,1.4.3s.97-.1,1.4-.3c.43-.2.81-.48,1.13-.84.32-.36.57-.8.75-1.3.18-.5.27-1.06.27-1.66s-.09-1.13-.27-1.63c-.18-.5-.43-.93-.75-1.3-.32-.36-.7-.64-1.13-.84-.43-.2-.9-.3-1.4-.3s-.97.1-1.4.31c-.43.21-.81.49-1.13.86-.32.36-.57.8-.75,1.3-.18.5-.27,1.05-.27,1.63Z"/>
        <path class="cls-4" d="m72.64,22.6h3.48v14.58c0,.5.12.89.36,1.17.24.28.59.42,1.04.42.21,0,.44-.03.69-.1.25-.07.49-.16.71-.26l.47,2.65c-.47.23-1.01.4-1.63.52-.62.12-1.19.18-1.69.18-1.09,0-1.93-.29-2.53-.87-.6-.58-.9-1.41-.9-2.48v-15.8Z"/>
        <path class="cls-4" d="m84.61,41.8c-.66,0-1.27-.11-1.84-.32-.57-.22-1.06-.52-1.48-.91-.42-.39-.74-.84-.97-1.36-.23-.52-.35-1.09-.35-1.71s.14-1.23.43-1.78c.29-.54.68-1.01,1.19-1.39.51-.38,1.12-.68,1.83-.9.71-.22,1.49-.32,2.33-.32.61,0,1.2.05,1.78.16.58.1,1.09.25,1.54.44v-.78c0-.9-.26-1.59-.77-2.08-.51-.48-1.27-.73-2.27-.73-.73,0-1.44.13-2.13.39-.69.26-1.4.64-2.13,1.14l-1.06-2.21c1.75-1.16,3.63-1.74,5.66-1.74s3.47.48,4.55,1.44c1.08.96,1.62,2.35,1.62,4.16v4.23c0,.36.06.62.19.78.13.16.34.24.64.26v2.96c-.59.12-1.1.18-1.53.18-.66,0-1.16-.15-1.52-.44-.35-.29-.58-.68-.66-1.17l-.08-.75c-.61.8-1.34,1.4-2.21,1.82-.87.42-1.79.62-2.78.62Zm.99-2.54c.59,0,1.15-.1,1.67-.31.53-.21.94-.48,1.23-.83.38-.29.57-.62.57-.99v-1.56c-.42-.16-.87-.28-1.35-.38-.48-.09-.95-.14-1.4-.14-.9,0-1.63.2-2.21.61-.57.41-.86.92-.86,1.54,0,.59.22,1.08.67,1.47s1,.58,1.66.58Z"/>
        <path class="cls-4" d="m103.88,30.96c-1.06.02-2,.22-2.83.61-.83.39-1.43.97-1.79,1.75v8.23h-3.48v-13.6h3.19v2.91c.24-.47.53-.89.86-1.26.33-.37.68-.7,1.06-.97s.77-.49,1.15-.64.77-.22,1.13-.22h.43c.1,0,.19,0,.27.03v3.17Z"/>
        <path class="cls-4" d="m118.15,26.26h-5.89v15.28h-3.55v-15.28h-5.89v-3.14h15.33v3.14Z"/>
        <path class="cls-4" d="m123.45,41.8c-1.09,0-2.08-.19-2.96-.56s-1.63-.88-2.26-1.52c-.62-.64-1.1-1.38-1.44-2.23s-.51-1.74-.51-2.67.16-1.88.49-2.74c.33-.86.8-1.61,1.43-2.26.62-.65,1.38-1.16,2.27-1.54.89-.38,1.89-.57,3-.57s2.1.19,2.97.57c.87.38,1.62.89,2.23,1.53.61.64,1.08,1.38,1.4,2.23.32.85.48,1.73.48,2.65,0,.23,0,.44-.01.65,0,.21-.03.38-.06.52h-10.51c.05.54.18,1.01.39,1.43.21.42.48.77.8,1.06.33.29.7.52,1.12.67.42.16.85.23,1.3.23.69,0,1.34-.17,1.96-.51.61-.34,1.03-.78,1.26-1.34l2.98.83c-.5,1.04-1.3,1.89-2.4,2.56-1.1.67-2.41,1-3.93,1Zm3.53-8.2c-.09-1.02-.46-1.84-1.13-2.45-.67-.61-1.48-.92-2.43-.92-.47,0-.9.08-1.31.25-.41.16-.77.39-1.08.69-.31.29-.57.65-.77,1.06s-.32.87-.35,1.38h7.06Z"/>
        <path class="cls-4" d="m131.83,34.75c0-.95.16-1.85.49-2.7s.8-1.59,1.43-2.23c.62-.64,1.38-1.15,2.26-1.53s1.88-.57,2.98-.57c1.49,0,2.75.32,3.8.96,1.05.64,1.83,1.48,2.35,2.52l-3.4,1.04c-.29-.5-.68-.89-1.17-1.15-.48-.27-1.02-.4-1.61-.4-.5,0-.97.1-1.4.3-.43.2-.81.48-1.13.83-.32.35-.57.78-.75,1.28-.18.5-.27,1.06-.27,1.66s.09,1.16.29,1.66c.19.5.45.93.77,1.3.32.36.7.64,1.13.84.43.2.89.3,1.38.3.62,0,1.2-.16,1.73-.47.53-.31.9-.69,1.1-1.14l3.4,1.04c-.47,1.04-1.24,1.89-2.31,2.54-1.07.66-2.36.99-3.87.99-1.11,0-2.1-.19-2.98-.57-.88-.38-1.63-.9-2.26-1.54-.62-.65-1.1-1.4-1.44-2.26-.34-.86-.51-1.75-.51-2.69Z"/>
        <path class="cls-4" d="m159.95,41.54h-3.48v-7.63c0-1.07-.2-1.86-.6-2.37-.4-.51-.96-.77-1.69-.77-.31,0-.64.07-.99.21-.35.14-.67.33-.99.58-.31.25-.6.55-.86.9-.26.35-.45.73-.57,1.14v7.94h-3.48v-18.94h3.48v7.86c.5-.88,1.18-1.56,2.04-2.04.86-.48,1.8-.71,2.84-.71.88,0,1.6.15,2.15.45.55.3.99.71,1.3,1.21.31.5.53,1.07.65,1.71.12.64.18,1.3.18,1.97v8.48Z"/>
      </g>
      <g>
        <path class="cls-5" d="m61.59,46.22v12.2h-1.01v-12.2h1.01Z"/>
        <path class="cls-5" d="m64.88,58.42v-12.2h1.06l7.85,10.59v-10.59h1.01v12.2h-1.1l-7.82-10.56v10.56h-1.01Z"/>
        <path class="cls-5" d="m82.94,46.22c3.54,0,5.23,2.94,5.23,6.1s-1.73,6.1-5.27,6.1h-4.81v-12.2h4.85Zm-3.84.92v10.36h3.78c2.78,0,4.23-2.32,4.23-5.18s-1.42-5.18-4.19-5.18h-3.82Z"/>
        <path class="cls-5" d="m91.59,46.22v7.91c0,2.32,1.36,3.59,3.66,3.59s3.68-1.27,3.68-3.59v-7.91h1.01v7.92c0,2.85-1.82,4.49-4.69,4.49s-4.67-1.65-4.67-4.49v-7.92h1.01Z"/>
        <path class="cls-5" d="m110.57,54.93c0-3.48-8.08-.99-8.08-5.61,0-2.18,1.84-3.33,4.37-3.33s4.49.96,4.65,3.41l-.88.23h-.07c-.19-2.1-1.77-2.72-3.73-2.72s-3.27.78-3.27,2.39c0,3.52,8.08,1.03,8.08,5.52,0,2.94-2.46,3.8-4.63,3.8-2.41,0-4.58-.9-4.72-3.43l.88-.25h.07c.16,2.16,1.86,2.76,3.78,2.76,1.7,0,3.55-.53,3.55-2.78Z"/>
        <path class="cls-5" d="m117.38,58.42v-11.28h-4.69v-.92h10.36v.92h-4.67v11.28h-1.01Z"/>
        <path class="cls-5" d="m131.13,52.97l2.62,5.38v.07h-1.1l-2.53-5.31c-.25.02-.5.02-.76.02h-3.36v5.29h-1.01v-12.2h4.67c2.35,0,4.12.9,4.12,3.47,0,1.96-1.2,3.04-2.65,3.29Zm-5.13-.74h3.68c1.86,0,3.04-.67,3.04-2.55s-1.2-2.55-3.04-2.55h-3.68v5.09Z"/>
        <path class="cls-5" d="m137.29,46.22v12.2h-1.01v-12.2h1.01Z"/>
        <path class="cls-5" d="m147.74,52.42h-6.15v5.08h7.34v.92h-8.35v-12.2h8.35v.92h-7.34v4.37h6.15v.92Z"/>
        <path class="cls-5" d="m158.76,54.93c0-3.48-8.08-.99-8.08-5.61,0-2.18,1.84-3.33,4.37-3.33s4.49.96,4.65,3.41l-.88.23h-.07c-.19-2.1-1.77-2.72-3.73-2.72s-3.27.78-3.27,2.39c0,3.52,8.08,1.03,8.08,5.52,0,2.94-2.46,3.8-4.63,3.8-2.41,0-4.58-.9-4.72-3.43l.88-.25h.07c.16,2.16,1.86,2.76,3.78,2.76,1.7,0,3.55-.53,3.55-2.78Z"/>
      </g>
    </g>
  </g>
</svg>