<?xml version="1.0" encoding="UTF-8"?>
<svg id="Layer_2" data-name="Layer 2" xmlns="http://www.w3.org/2000/svg" viewBox="0 0 166.61 104.93">
  <defs>
    <style>
      .cls-1 {
        fill: #214265;
      }

      .cls-1, .cls-2, .cls-3, .cls-4, .cls-5, .cls-6 {
        stroke-width: 0px;
      }

      .cls-2 {
        fill: #092038;
      }

      .cls-3 {
        fill: #00728b;
      }

      .cls-4 {
        fill: #fff;
      }

      .cls-5 {
        fill: #afffff;
      }

      .cls-6 {
        fill: #6cf;
      }
    </style>
  </defs>
  <g id="Layer_1-2" data-name="Layer 1">
    <g>
      <g>
        <polygon class="cls-2" points="73.62 83.42 118.99 22.05 .25 .25 .25 104.67 73.62 83.42"/>
        <polygon class="cls-1" points=".25 .25 118.99 22.05 166.36 .25 .25 .25"/>
        <polygon class="cls-3" points=".25 104.67 166.36 104.67 73.62 83.42 .25 104.67"/>
        <polygon class="cls-6" points="118.99 22.05 73.62 83.42 166.36 104.67 166.36 84.9 94.83 84.9 94.83 62.6 166.36 62.6 166.36 58.84 137.64 58.84 137.64 20.18 166.36 20.18 166.36 .25 118.99 22.05"/>
        <rect class="cls-2" x="94.83" y="62.6" width="71.53" height="22.3"/>
        <rect class="cls-2" x="137.64" y="20.18" width="28.72" height="38.66"/>
      </g>
      <g>
        <path class="cls-4" d="m13.98,24.67c-.1-.1-.29-.24-.56-.41-.27-.17-.6-.35-.98-.51-.38-.17-.8-.31-1.25-.42-.45-.12-.91-.17-1.37-.17-.83,0-1.45.15-1.85.46-.41.31-.61.73-.61,1.29,0,.32.08.58.23.79.15.21.37.4.66.56.29.16.66.31,1.1.44.44.13.95.27,1.54.41.76.2,1.44.42,2.06.65.62.23,1.14.52,1.57.87.43.35.76.77.99,1.25s.35,1.09.35,1.8c0,.83-.16,1.54-.47,2.12-.31.59-.73,1.06-1.26,1.43-.53.36-1.14.63-1.83.8-.69.17-1.41.25-2.17.25-1.16,0-2.31-.17-3.44-.52s-2.15-.84-3.05-1.48l1.33-2.59c.13.13.37.3.71.51.34.21.74.42,1.21.63.46.21.98.39,1.55.53.57.15,1.15.22,1.74.22,1.66,0,2.48-.53,2.48-1.59,0-.33-.09-.62-.28-.85-.19-.23-.46-.44-.81-.61s-.77-.33-1.26-.48c-.49-.15-1.05-.3-1.66-.48-.74-.2-1.38-.42-1.93-.66s-1-.52-1.36-.85c-.36-.33-.64-.7-.82-1.13s-.27-.94-.27-1.54c0-.78.15-1.48.44-2.09.29-.61.69-1.12,1.21-1.52s1.11-.72,1.8-.93c.68-.21,1.42-.32,2.2-.32,1.09,0,2.09.17,3.01.51s1.71.74,2.4,1.21l-1.33,2.44Z"/>
        <path class="cls-4" d="m23.1,36.31c-.93,0-1.76-.16-2.51-.48s-1.37-.75-1.88-1.3c-.52-.54-.91-1.17-1.19-1.88-.28-.71-.41-1.46-.41-2.24s.14-1.55.41-2.27.67-1.34,1.19-1.88c.52-.54,1.14-.98,1.88-1.3.74-.32,1.58-.48,2.51-.48s1.76.16,2.49.48c.73.32,1.36.75,1.87,1.3.52.54.91,1.17,1.19,1.88.28.71.41,1.47.41,2.27s-.14,1.53-.41,2.24c-.28.71-.67,1.34-1.18,1.88-.51.54-1.13.98-1.87,1.3s-1.58.48-2.51.48Zm-2.98-5.9c0,.51.08.97.23,1.38s.36.77.63,1.08c.27.3.58.54.95.71.36.17.75.25,1.18.25s.81-.08,1.18-.25c.36-.17.68-.4.95-.71.27-.31.48-.67.63-1.09.15-.42.23-.89.23-1.39s-.08-.95-.23-1.37c-.15-.42-.36-.78-.63-1.09-.27-.3-.58-.54-.95-.71-.36-.17-.76-.25-1.18-.25s-.81.09-1.18.26c-.36.17-.68.41-.95.72-.27.31-.48.67-.63,1.09-.15.42-.23.88-.23,1.37Z"/>
        <path class="cls-4" d="m31.01,20.18h2.92v12.24c0,.42.1.75.3.98.2.23.49.35.87.35.17,0,.37-.03.58-.09.21-.06.41-.13.6-.22l.39,2.22c-.39.19-.85.33-1.37.44-.52.1-1,.15-1.42.15-.92,0-1.62-.24-2.12-.73-.5-.49-.75-1.18-.75-2.08v-13.27Z"/>
        <path class="cls-4" d="m41.05,36.31c-.55,0-1.07-.09-1.55-.27-.48-.18-.89-.44-1.24-.76s-.62-.71-.82-1.14c-.2-.44-.29-.92-.29-1.44s.12-1.04.36-1.49c.24-.46.57-.85,1-1.17.43-.32.94-.57,1.54-.75.6-.18,1.25-.27,1.96-.27.51,0,1.01.04,1.49.13.49.09.92.21,1.3.37v-.65c0-.75-.21-1.34-.64-1.74-.43-.41-1.06-.61-1.91-.61-.61,0-1.21.11-1.79.33-.58.22-1.18.54-1.79.96l-.89-1.85c1.47-.97,3.05-1.46,4.75-1.46s2.92.4,3.82,1.21,1.36,1.97,1.36,3.5v3.55c0,.31.05.52.16.65.11.13.29.2.53.22v2.48c-.49.1-.92.15-1.29.15-.55,0-.98-.12-1.27-.37-.3-.25-.48-.57-.56-.98l-.06-.63c-.51.67-1.13,1.18-1.85,1.52-.73.35-1.5.52-2.33.52Zm.83-2.13c.49,0,.96-.09,1.41-.26s.79-.41,1.04-.7c.32-.25.48-.52.48-.83v-1.31c-.35-.13-.73-.24-1.13-.32-.41-.08-.8-.12-1.18-.12-.76,0-1.37.17-1.85.51-.48.34-.72.77-.72,1.3,0,.49.19.9.57,1.23.38.33.84.49,1.39.49Z"/>
        <path class="cls-4" d="m57.24,27.2c-.89.01-1.68.19-2.37.51-.7.33-1.2.82-1.5,1.47v6.91h-2.92v-11.42h2.68v2.44c.2-.39.44-.74.72-1.06s.57-.58.89-.82c.32-.23.64-.41.97-.53.33-.12.64-.19.95-.19h.36c.08,0,.16,0,.23.02v2.66Z"/>
        <path class="cls-4" d="m69.22,23.26h-4.95v12.83h-2.98v-12.83h-4.95v-2.64h12.88v2.64Z"/>
        <path class="cls-4" d="m73.67,36.31c-.92,0-1.74-.16-2.48-.47s-1.37-.74-1.9-1.27c-.52-.54-.93-1.16-1.21-1.87s-.42-1.46-.42-2.24.14-1.58.41-2.3.68-1.35,1.2-1.9c.52-.54,1.16-.98,1.91-1.3.75-.32,1.59-.48,2.52-.48s1.76.16,2.49.48c.73.32,1.36.75,1.87,1.29.52.54.91,1.16,1.18,1.87.27.71.4,1.45.4,2.22,0,.19,0,.37-.01.54,0,.17-.03.32-.05.44h-8.82c.04.45.15.85.33,1.2s.4.65.68.89c.28.25.59.44.94.57s.71.2,1.09.2c.58,0,1.13-.14,1.64-.42s.87-.66,1.06-1.12l2.51.7c-.42.87-1.09,1.59-2.02,2.15-.92.56-2.02.84-3.3.84Zm2.96-6.88c-.07-.86-.39-1.54-.95-2.06-.56-.52-1.24-.77-2.04-.77-.39,0-.76.07-1.1.21-.34.14-.64.33-.9.58-.26.25-.48.54-.64.89s-.27.73-.29,1.15h5.93Z"/>
        <path class="cls-4" d="m80.7,30.38c0-.8.14-1.55.41-2.27.28-.71.68-1.34,1.2-1.87.52-.54,1.15-.97,1.9-1.29.74-.32,1.58-.48,2.51-.48,1.25,0,2.31.27,3.19.81s1.54,1.24,1.97,2.11l-2.85.87c-.25-.42-.57-.74-.98-.97s-.86-.34-1.35-.34c-.42,0-.81.08-1.18.25-.36.17-.68.4-.95.7-.27.3-.48.66-.63,1.08s-.23.89-.23,1.39.08.97.24,1.39.37.78.64,1.09c.27.3.58.54.95.71.36.17.75.25,1.15.25.52,0,1.01-.13,1.45-.39.44-.26.75-.58.93-.96l2.85.87c-.39.87-1.04,1.58-1.94,2.14s-1.98.83-3.25.83c-.93,0-1.76-.16-2.51-.48s-1.37-.75-1.9-1.3c-.52-.54-.93-1.18-1.21-1.9s-.42-1.47-.42-2.25Z"/>
        <path class="cls-4" d="m104.32,36.09h-2.92v-6.41c0-.9-.17-1.56-.5-1.99-.33-.43-.81-.64-1.42-.64-.26,0-.54.06-.83.17-.29.12-.57.28-.83.49-.26.21-.5.46-.72.75s-.38.61-.48.96v6.67h-2.92v-15.9h2.92v6.6c.42-.74.99-1.31,1.71-1.71s1.51-.6,2.39-.6c.74,0,1.34.13,1.81.38.46.25.83.59,1.09,1.01.26.42.44.9.54,1.44.1.54.15,1.09.15,1.66v7.12Z"/>
      </g>
      <g>
        <path class="cls-5" d="m5.37,40.01v10.24h-.85v-10.24h.85Z"/>
        <path class="cls-5" d="m8.14,50.26v-10.24h.89l6.59,8.89v-8.89h.85v10.24h-.92l-6.56-8.86v8.86h-.85Z"/>
        <path class="cls-5" d="m23.3,40.01c2.97,0,4.39,2.46,4.39,5.12s-1.45,5.12-4.42,5.12h-4.04v-10.24h4.07Zm-3.22.77v8.7h3.18c2.33,0,3.55-1.94,3.55-4.35s-1.19-4.35-3.52-4.35h-3.21Z"/>
        <path class="cls-5" d="m30.57,40.01v6.64c0,1.94,1.14,3.01,3.07,3.01s3.09-1.07,3.09-3.01v-6.64h.85v6.65c0,2.39-1.53,3.77-3.93,3.77s-3.92-1.38-3.92-3.77v-6.65h.85Z"/>
        <path class="cls-5" d="m46.5,47.33c0-2.92-6.79-.83-6.79-4.71,0-1.83,1.54-2.79,3.67-2.79s3.77.8,3.9,2.87l-.74.19h-.06c-.16-1.77-1.48-2.29-3.13-2.29s-2.75.65-2.75,2c0,2.95,6.79.86,6.79,4.63,0,2.46-2.06,3.19-3.89,3.19-2.02,0-3.85-.76-3.96-2.88l.74-.21h.06c.13,1.81,1.56,2.32,3.18,2.32,1.43,0,2.98-.45,2.98-2.33Z"/>
        <path class="cls-5" d="m52.22,50.26v-9.47h-3.93v-.77h8.7v.77h-3.92v9.47h-.85Z"/>
        <path class="cls-5" d="m63.76,45.68l2.2,4.51v.06h-.92l-2.12-4.45c-.21.02-.42.02-.64.02h-2.82v4.44h-.85v-10.24h3.92c1.97,0,3.46.76,3.46,2.91,0,1.65-1.01,2.55-2.23,2.76Zm-4.31-.62h3.09c1.56,0,2.55-.56,2.55-2.14s-1.01-2.14-2.55-2.14h-3.09v4.28Z"/>
        <path class="cls-5" d="m68.93,40.01v10.24h-.85v-10.24h.85Z"/>
        <path class="cls-5" d="m77.71,45.22h-5.17v4.26h6.16v.77h-7.01v-10.24h7.01v.77h-6.16v3.67h5.17v.77Z"/>
        <path class="cls-5" d="m86.96,47.33c0-2.92-6.79-.83-6.79-4.71,0-1.83,1.54-2.79,3.67-2.79s3.77.8,3.9,2.87l-.74.19h-.06c-.16-1.77-1.48-2.29-3.13-2.29s-2.75.65-2.75,2c0,2.95,6.79.86,6.79,4.63,0,2.46-2.06,3.19-3.89,3.19-2.02,0-3.85-.76-3.96-2.88l.74-.21h.06c.13,1.81,1.56,2.32,3.18,2.32,1.43,0,2.98-.45,2.98-2.33Z"/>
      </g>
    </g>
  </g>
</svg>