<?xml version="1.0" encoding="UTF-8"?>
<svg id="Layer_2" data-name="Layer 2" xmlns="http://www.w3.org/2000/svg" viewBox="0 0 168.71 168.24">
  <defs>
    <style>
      .cls-1 {
        fill: #214265;
      }

      .cls-1, .cls-2, .cls-3, .cls-4, .cls-5, .cls-6 {
        stroke-width: 0px;
      }

      .cls-2 {
        fill: #092038;
      }

      .cls-3 {
        fill: #00728b;
      }

      .cls-4 {
        fill: #fff;
      }

      .cls-5 {
        fill: #afffff;
      }

      .cls-6 {
        fill: #6cf;
      }
    </style>
  </defs>
  <g id="Layer_1-2" data-name="Layer 1">
    <g>
      <g>
        <polygon class="cls-2" points="89.69 120.57 89.68 120.57 44.77 37.14 167.99 .24 167.99 168 89.71 120.6 89.69 120.57"/>
        <polygon class="cls-1" points="167.99 .24 44.77 37.14 .25 .24 167.99 .24"/>
        <polygon class="cls-3" points="167.99 168 .25 168 89.68 120.57 89.69 120.57 89.71 120.6 167.99 168"/>
        <rect class="cls-2" x=".25" y="104.32" width="53.81" height="30.93"/>
        <rect class="cls-2" x=".25" y="69.2" width="53.46" height="30.93"/>
        <polygon class="cls-6" points="26.79 36.34 .25 36.34 .25 .24 44.77 37.14 89.68 120.57 .25 168 .25 135.25 54.06 135.25 54.06 104.32 .25 104.32 .25 100.13 53.71 100.13 53.71 69.2 .25 69.2 .25 66.21 26.79 66.21 26.79 36.34"/>
        <rect class="cls-2" x=".25" y="36.34" width="26.54" height="29.86"/>
      </g>
      <g>
        <path class="cls-4" d="m73.25,40.88c-.1-.1-.29-.24-.56-.42-.27-.18-.6-.35-.99-.52-.39-.17-.81-.31-1.26-.43-.46-.12-.92-.18-1.39-.18-.84,0-1.46.15-1.87.46s-.62.74-.62,1.3c0,.32.08.59.23.8s.38.4.67.56c.29.16.66.31,1.11.44.45.13.96.27,1.55.42.76.21,1.46.43,2.08.66.62.23,1.15.53,1.58.88.43.35.77.77,1,1.26.23.49.35,1.1.35,1.82,0,.84-.16,1.55-.47,2.14s-.74,1.07-1.28,1.44c-.54.37-1.15.63-1.85.8-.7.17-1.43.25-2.19.25-1.17,0-2.33-.18-3.48-.53s-2.17-.85-3.08-1.5l1.34-2.62c.13.13.37.3.71.52.34.21.75.43,1.22.64.47.21.99.39,1.56.54.57.15,1.16.22,1.76.22,1.67,0,2.51-.54,2.51-1.61,0-.34-.1-.62-.29-.86-.19-.23-.46-.44-.81-.62-.35-.18-.78-.34-1.28-.48s-1.06-.31-1.67-.48c-.75-.21-1.4-.43-1.95-.67-.55-.24-1.01-.53-1.38-.86-.37-.33-.64-.71-.83-1.14-.18-.43-.27-.95-.27-1.55,0-.79.15-1.5.44-2.11.29-.62.7-1.13,1.22-1.54.52-.41,1.12-.72,1.81-.93.69-.21,1.43-.32,2.22-.32,1.1,0,2.11.17,3.04.52.92.35,1.73.75,2.42,1.22l-1.34,2.46Z"/>
        <path class="cls-4" d="m82.46,52.63c-.94,0-1.78-.16-2.53-.48-.75-.32-1.38-.76-1.9-1.31-.52-.55-.92-1.18-1.2-1.9-.28-.72-.42-1.47-.42-2.27s.14-1.57.42-2.29c.28-.72.68-1.35,1.2-1.9s1.16-.99,1.9-1.31c.75-.32,1.59-.48,2.53-.48s1.78.16,2.52.48c.74.32,1.37.76,1.89,1.31.52.55.92,1.18,1.2,1.9.28.72.42,1.48.42,2.29s-.14,1.55-.42,2.27c-.28.72-.67,1.35-1.19,1.9-.51.55-1.14.99-1.89,1.31-.75.32-1.59.48-2.53.48Zm-3.01-5.96c0,.51.08.98.23,1.4.15.42.37.78.64,1.09.27.31.59.55.96.71.37.17.76.25,1.19.25s.82-.08,1.19-.25c.37-.17.69-.41.96-.71.27-.31.48-.67.64-1.1.15-.43.23-.89.23-1.41s-.08-.96-.23-1.39c-.15-.42-.37-.79-.64-1.1-.27-.31-.59-.55-.96-.71-.37-.17-.76-.25-1.19-.25s-.82.09-1.19.26c-.37.18-.69.42-.96.73-.27.31-.48.67-.64,1.1-.15.42-.23.89-.23,1.38Z"/>
        <path class="cls-4" d="m90.45,36.35h2.95v12.36c0,.43.1.76.31.99.21.23.5.35.88.35.18,0,.37-.03.58-.09.21-.06.41-.13.6-.22l.4,2.24c-.4.19-.86.34-1.39.44-.53.1-1,.15-1.43.15-.92,0-1.64-.24-2.15-.74-.51-.49-.76-1.19-.76-2.1v-13.4Z"/>
        <path class="cls-4" d="m100.59,52.63c-.56,0-1.08-.09-1.56-.28-.48-.18-.9-.44-1.25-.77s-.63-.71-.82-1.16c-.2-.44-.3-.92-.3-1.45s.12-1.04.36-1.51c.24-.46.58-.85,1.01-1.18s.95-.58,1.55-.76c.6-.18,1.26-.27,1.98-.27.51,0,1.02.04,1.51.13s.93.21,1.31.37v-.66c0-.76-.22-1.35-.65-1.76s-1.07-.62-1.92-.62c-.62,0-1.22.11-1.8.33-.59.22-1.19.54-1.8.97l-.9-1.87c1.48-.98,3.08-1.47,4.8-1.47s2.94.41,3.86,1.22c.92.81,1.38,1.99,1.38,3.53v3.59c0,.31.05.53.16.66.11.13.29.21.54.22v2.51c-.5.1-.93.15-1.3.15-.56,0-.99-.12-1.29-.37s-.49-.58-.56-.99l-.07-.64c-.51.67-1.14,1.19-1.87,1.54s-1.52.53-2.35.53Zm.84-2.16c.5,0,.97-.09,1.42-.26.45-.18.8-.41,1.04-.7.32-.25.48-.53.48-.84v-1.32c-.35-.13-.73-.24-1.14-.32-.41-.08-.81-.12-1.19-.12-.76,0-1.39.17-1.87.52-.48.34-.73.78-.73,1.31,0,.5.19.91.57,1.24s.85.5,1.41.5Z"/>
        <path class="cls-4" d="m116.94,43.43c-.9.01-1.69.19-2.4.52s-1.21.83-1.52,1.49v6.97h-2.95v-11.53h2.71v2.46c.21-.4.45-.75.73-1.07.28-.31.58-.59.9-.82s.65-.41.98-.54c.33-.12.65-.19.96-.19h.36c.08,0,.16,0,.23.02v2.68Z"/>
        <path class="cls-4" d="m129.04,39.45h-4.99v12.96h-3.01v-12.96h-4.99v-2.66h13v2.66Z"/>
        <path class="cls-4" d="m133.52,52.63c-.92,0-1.76-.16-2.51-.47-.75-.32-1.39-.74-1.91-1.29-.53-.54-.94-1.17-1.22-1.89s-.43-1.47-.43-2.27.14-1.6.42-2.32c.28-.73.68-1.36,1.21-1.91.53-.55,1.17-.99,1.92-1.31.76-.32,1.6-.48,2.54-.48s1.78.16,2.52.48c.74.32,1.37.76,1.89,1.3.52.54.92,1.17,1.19,1.89.27.72.41,1.47.41,2.24,0,.19,0,.37-.01.55,0,.18-.03.32-.06.44h-8.91c.04.45.15.86.33,1.21.18.35.4.65.68.9.28.25.59.44.95.57.35.13.72.2,1.1.2.59,0,1.14-.14,1.66-.43.52-.29.88-.66,1.07-1.13l2.53.71c-.43.88-1.1,1.6-2.04,2.17-.93.57-2.04.85-3.33.85Zm2.99-6.95c-.07-.87-.39-1.56-.96-2.08-.56-.52-1.25-.78-2.06-.78-.4,0-.77.07-1.11.21-.34.14-.65.33-.91.58-.26.25-.48.55-.65.9-.17.35-.27.74-.3,1.17h5.98Z"/>
        <path class="cls-4" d="m140.63,46.64c0-.81.14-1.57.42-2.29.28-.72.68-1.35,1.21-1.89.53-.54,1.17-.98,1.91-1.3.75-.32,1.59-.48,2.53-.48,1.26,0,2.34.27,3.22.81.89.54,1.55,1.25,1.99,2.13l-2.88.88c-.25-.42-.58-.75-.99-.98-.41-.23-.87-.34-1.36-.34-.43,0-.82.08-1.19.25-.37.17-.69.4-.96.7-.27.3-.48.66-.64,1.09-.15.43-.23.89-.23,1.41s.08.98.24,1.41c.16.43.38.79.65,1.1.27.31.59.55.96.71.37.17.76.25,1.17.25.53,0,1.02-.13,1.46-.4s.76-.59.94-.97l2.88.88c-.4.88-1.05,1.6-1.96,2.16-.91.56-2,.84-3.28.84-.94,0-1.78-.16-2.53-.48s-1.39-.76-1.91-1.31c-.53-.55-.94-1.19-1.22-1.91-.29-.73-.43-1.49-.43-2.28Z"/>
        <path class="cls-4" d="m164.48,52.41h-2.95v-6.47c0-.91-.17-1.58-.51-2.01s-.81-.65-1.43-.65c-.26,0-.54.06-.84.18s-.57.28-.84.49c-.26.21-.51.47-.73.76-.22.29-.38.62-.48.97v6.73h-2.95v-16.06h2.95v6.67c.43-.75,1-1.32,1.73-1.73.73-.4,1.53-.6,2.41-.6.75,0,1.36.13,1.83.39.47.26.84.6,1.1,1.02s.45.91.55,1.45.15,1.1.15,1.67v7.19Z"/>
      </g>
      <g>
        <path class="cls-5" d="m81.98,55.54v10.35h-.85v-10.35h.85Z"/>
        <path class="cls-5" d="m84.77,65.89v-10.35h.9l6.66,8.99v-8.99h.85v10.35h-.93l-6.63-8.95v8.95h-.85Z"/>
        <path class="cls-5" d="m100.08,55.54c3,0,4.44,2.49,4.44,5.17s-1.47,5.17-4.47,5.17h-4.08v-10.35h4.11Zm-3.25.78v8.79h3.21c2.35,0,3.58-1.96,3.58-4.39s-1.2-4.39-3.55-4.39h-3.24Z"/>
        <path class="cls-5" d="m107.42,55.54v6.7c0,1.96,1.15,3.04,3.1,3.04s3.12-1.08,3.12-3.04v-6.7h.85v6.72c0,2.42-1.54,3.81-3.97,3.81s-3.96-1.4-3.96-3.81v-6.72h.85Z"/>
        <path class="cls-5" d="m123.51,62.93c0-2.95-6.85-.84-6.85-4.75,0-1.84,1.56-2.82,3.71-2.82s3.81.81,3.94,2.9l-.75.19h-.06c-.17-1.78-1.5-2.31-3.17-2.31s-2.77.66-2.77,2.02c0,2.99,6.85.87,6.85,4.68,0,2.49-2.08,3.23-3.93,3.23-2.04,0-3.88-.77-4-2.91l.75-.21h.06c.13,1.83,1.57,2.34,3.21,2.34,1.44,0,3.02-.45,3.02-2.35Z"/>
        <path class="cls-5" d="m129.29,65.89v-9.57h-3.97v-.78h8.79v.78h-3.96v9.57h-.85Z"/>
        <path class="cls-5" d="m140.94,61.27l2.22,4.56v.06h-.93l-2.15-4.5c-.21.01-.42.01-.65.01h-2.85v4.49h-.85v-10.35h3.96c1.99,0,3.49.76,3.49,2.94,0,1.66-1.02,2.58-2.25,2.79Zm-4.35-.63h3.12c1.58,0,2.58-.57,2.58-2.16s-1.02-2.16-2.58-2.16h-3.12v4.32Z"/>
        <path class="cls-5" d="m146.16,55.54v10.35h-.85v-10.35h.85Z"/>
        <path class="cls-5" d="m155.03,60.8h-5.22v4.3h6.22v.78h-7.08v-10.35h7.08v.78h-6.22v3.71h5.22v.78Z"/>
        <path class="cls-5" d="m164.37,62.93c0-2.95-6.85-.84-6.85-4.75,0-1.84,1.56-2.82,3.71-2.82s3.81.81,3.94,2.9l-.75.19h-.06c-.17-1.78-1.5-2.31-3.16-2.31s-2.77.66-2.77,2.02c0,2.99,6.85.87,6.85,4.68,0,2.49-2.08,3.23-3.93,3.23-2.04,0-3.88-.77-4-2.91l.75-.21h.06c.13,1.83,1.57,2.34,3.21,2.34,1.44,0,3.02-.45,3.02-2.35Z"/>
      </g>
    </g>
  </g>
</svg>