<?xml version="1.0" encoding="UTF-8"?>
<svg id="Layer_2" data-name="Layer 2" xmlns="http://www.w3.org/2000/svg" viewBox="0 0 164.71 154.74">
  <defs>
    <style>
      .cls-1 {
        fill: #214265;
      }

      .cls-1, .cls-2, .cls-3, .cls-4, .cls-5, .cls-6 {
        stroke-width: 0px;
      }

      .cls-2 {
        fill: #092038;
      }

      .cls-3 {
        fill: #00728b;
      }

      .cls-4 {
        fill: #fff;
      }

      .cls-5 {
        fill: #afffff;
      }

      .cls-6 {
        fill: #6cf;
      }
    </style>
  </defs>
  <g id="Layer_1-2" data-name="Layer 1">
    <g>
      <g>
        <polygon class="cls-2" points="72.77 123.09 72.78 123.09 117.63 32.45 .25 .25 .25 154.49 72.77 123.09"/>
        <polygon class="cls-1" points=".25 .25 117.63 32.45 164.46 .25 .25 .25"/>
        <polygon class="cls-3" points=".25 154.49 164.46 154.49 72.77 123.09 .25 154.49"/>
        <polygon class="cls-6" points="72.77 123.09 164.46 154.49 164.46 125.27 93.75 125.27 93.75 92.34 164.46 92.34 164.46 .25 117.63 32.45 72.78 123.09 72.77 123.09"/>
        <rect class="cls-2" x="93.75" y="92.34" width="70.71" height="32.93"/>
      </g>
      <g>
        <path class="cls-4" d="m14.74,36.34c-.1-.1-.28-.23-.54-.4-.26-.17-.58-.34-.96-.5-.38-.16-.79-.3-1.23-.42-.44-.11-.89-.17-1.34-.17-.81,0-1.41.15-1.81.45-.4.3-.6.72-.6,1.26,0,.31.07.57.22.78.15.21.37.39.65.54.28.16.64.3,1.08.43.43.13.93.26,1.5.4.74.2,1.41.41,2.01.64.6.23,1.12.51,1.53.85.42.34.74.75.97,1.23.23.48.34,1.06.34,1.76,0,.81-.15,1.5-.46,2.08-.31.58-.72,1.04-1.24,1.4-.52.36-1.12.61-1.79.78-.68.16-1.38.25-2.12.25-1.14,0-2.26-.17-3.37-.51-1.11-.34-2.1-.82-2.98-1.45l1.3-2.54c.13.13.36.3.69.5.33.21.73.41,1.18.62s.96.38,1.51.52c.55.14,1.12.21,1.7.21,1.62,0,2.43-.52,2.43-1.56,0-.33-.09-.6-.28-.83-.18-.23-.45-.43-.79-.6-.34-.17-.75-.33-1.24-.47-.48-.14-1.02-.3-1.62-.47-.72-.2-1.35-.42-1.89-.65s-.98-.51-1.33-.83c-.36-.32-.62-.69-.8-1.11-.18-.42-.27-.92-.27-1.5,0-.77.14-1.45.43-2.05.28-.6.68-1.09,1.18-1.49.5-.4,1.09-.7,1.76-.91.67-.21,1.38-.31,2.15-.31,1.07,0,2.05.17,2.94.5.9.33,1.68.73,2.34,1.18l-1.3,2.39Z"/>
        <path class="cls-4" d="m23.67,47.72c-.91,0-1.73-.16-2.45-.47-.72-.31-1.34-.73-1.84-1.27-.5-.53-.89-1.15-1.16-1.84-.27-.7-.4-1.43-.4-2.19s.13-1.52.4-2.22c.27-.7.66-1.31,1.16-1.84.5-.53,1.12-.96,1.84-1.27s1.54-.47,2.45-.47,1.72.16,2.44.47,1.33.74,1.83,1.27c.5.53.89,1.15,1.16,1.84.27.7.4,1.44.4,2.22s-.13,1.5-.4,2.19c-.27.7-.65,1.31-1.15,1.84-.5.53-1.11.96-1.83,1.27-.72.31-1.54.47-2.45.47Zm-2.92-5.77c0,.5.07.95.22,1.35.15.41.35.76.62,1.06.26.3.57.53.93.69.35.16.74.25,1.15.25s.8-.08,1.15-.25c.35-.16.66-.39.93-.69s.47-.65.62-1.07c.15-.41.22-.87.22-1.36s-.07-.93-.22-1.34c-.15-.41-.36-.77-.62-1.07s-.57-.53-.93-.69c-.36-.16-.74-.25-1.15-.25s-.8.09-1.15.26-.66.4-.93.7c-.26.3-.47.65-.62,1.07-.15.41-.22.86-.22,1.34Z"/>
        <path class="cls-4" d="m31.4,31.95h2.86v11.98c0,.41.1.73.3.96.2.23.48.34.85.34.17,0,.36-.03.56-.08s.4-.13.59-.21l.38,2.17c-.38.18-.83.33-1.34.43-.51.1-.97.15-1.38.15-.9,0-1.59-.24-2.08-.71-.49-.48-.73-1.15-.73-2.04v-12.98Z"/>
        <path class="cls-4" d="m41.23,47.72c-.54,0-1.04-.09-1.51-.27-.47-.18-.87-.43-1.21-.75-.34-.32-.61-.69-.8-1.12s-.29-.9-.29-1.41.12-1.01.35-1.46.56-.83.98-1.14c.42-.31.92-.56,1.5-.74.58-.18,1.22-.27,1.92-.27.5,0,.98.04,1.46.13.48.08.9.21,1.27.36v-.64c0-.74-.21-1.31-.63-1.7-.42-.4-1.04-.6-1.86-.6-.6,0-1.18.11-1.75.32-.57.21-1.15.53-1.75.94l-.87-1.81c1.43-.95,2.98-1.43,4.65-1.43s2.85.39,3.74,1.18c.89.79,1.33,1.93,1.33,3.42v3.47c0,.3.05.51.16.64.11.13.28.2.52.21v2.43c-.48.1-.9.15-1.26.15-.54,0-.96-.12-1.25-.36-.29-.24-.47-.56-.54-.96l-.06-.62c-.5.65-1.1,1.15-1.81,1.49s-1.47.51-2.28.51Zm.81-2.09c.48,0,.94-.08,1.37-.26.43-.17.77-.4,1.01-.68.31-.24.47-.51.47-.81v-1.28c-.34-.13-.71-.23-1.11-.31-.4-.08-.78-.12-1.15-.12-.74,0-1.34.17-1.81.5s-.7.76-.7,1.27c0,.48.18.88.55,1.2.37.32.82.48,1.36.48Z"/>
        <path class="cls-4" d="m57.06,38.81c-.87.01-1.64.18-2.32.5s-1.17.8-1.47,1.44v6.76h-2.86v-11.17h2.62v2.39c.2-.38.43-.73.7-1.03.27-.31.56-.57.87-.8.31-.23.63-.4.95-.52.32-.12.63-.18.93-.18h.35c.08,0,.15,0,.22.02v2.6Z"/>
        <path class="cls-4" d="m68.78,34.95h-4.84v12.55h-2.92v-12.55h-4.84v-2.58h12.59v2.58Z"/>
        <path class="cls-4" d="m73.13,47.72c-.9,0-1.71-.15-2.43-.46s-1.34-.72-1.85-1.25c-.51-.53-.91-1.14-1.18-1.83s-.42-1.43-.42-2.2.13-1.54.4-2.25.66-1.32,1.17-1.85c.51-.53,1.13-.96,1.86-1.27.73-.31,1.55-.47,2.46-.47s1.72.16,2.44.47c.72.31,1.33.73,1.83,1.26.5.53.89,1.14,1.15,1.83.26.7.39,1.42.39,2.17,0,.19,0,.36-.01.53s-.02.31-.05.43h-8.63c.04.44.15.83.32,1.17.17.34.39.63.66.87.27.24.58.43.92.55.34.13.7.19,1.07.19.57,0,1.1-.14,1.61-.42.5-.28.85-.64,1.03-1.1l2.45.68c-.41.85-1.07,1.55-1.97,2.1-.9.55-1.98.82-3.23.82Zm2.9-6.73c-.07-.84-.38-1.51-.93-2.01-.55-.5-1.21-.76-1.99-.76-.38,0-.74.07-1.08.2-.33.14-.63.32-.88.56s-.47.53-.63.87c-.16.34-.26.72-.29,1.13h5.8Z"/>
        <path class="cls-4" d="m80.01,41.92c0-.78.13-1.52.4-2.22.27-.7.66-1.31,1.17-1.83.51-.53,1.13-.94,1.85-1.26s1.54-.47,2.45-.47c1.22,0,2.26.26,3.12.79.86.53,1.5,1.21,1.93,2.07l-2.79.85c-.24-.41-.56-.73-.96-.95-.4-.22-.84-.33-1.32-.33-.41,0-.8.08-1.15.25-.35.16-.66.39-.93.68-.26.29-.47.64-.62,1.05-.15.41-.22.87-.22,1.36s.08.95.23,1.36c.16.41.37.77.63,1.07s.57.53.93.69c.35.16.73.25,1.13.25.51,0,.98-.13,1.42-.38.43-.26.74-.57.91-.94l2.79.85c-.38.85-1.02,1.55-1.9,2.09-.88.54-1.94.81-3.18.81-.91,0-1.73-.16-2.45-.47-.72-.31-1.34-.73-1.85-1.27-.51-.53-.91-1.15-1.18-1.85-.28-.7-.42-1.44-.42-2.21Z"/>
        <path class="cls-4" d="m103.11,47.5h-2.86v-6.27c0-.88-.16-1.53-.49-1.95-.33-.42-.79-.63-1.39-.63-.26,0-.53.06-.81.17s-.55.27-.81.48c-.26.21-.49.45-.7.74-.21.28-.37.6-.47.94v6.52h-2.86v-15.56h2.86v6.46c.41-.72.97-1.28,1.67-1.67.7-.39,1.48-.59,2.33-.59.72,0,1.31.12,1.77.37.45.25.81.58,1.07.99.26.41.43.88.53,1.41.1.53.15,1.07.15,1.62v6.97Z"/>
      </g>
      <g>
        <path class="cls-5" d="m18.33,49.83v9.19h-.76v-9.19h.76Z"/>
        <path class="cls-5" d="m20.81,59.02v-9.19h.8l5.91,7.98v-7.98h.76v9.19h-.83l-5.89-7.95v7.95h-.76Z"/>
        <path class="cls-5" d="m34.41,49.83c2.66,0,3.94,2.21,3.94,4.6s-1.31,4.6-3.97,4.6h-3.62v-9.19h3.65Zm-2.89.69v7.81h2.85c2.09,0,3.18-1.74,3.18-3.9s-1.07-3.9-3.16-3.9h-2.88Z"/>
        <path class="cls-5" d="m40.92,49.83v5.95c0,1.75,1.03,2.7,2.76,2.7s2.77-.96,2.77-2.7v-5.95h.76v5.97c0,2.14-1.37,3.38-3.53,3.38s-3.52-1.24-3.52-3.38v-5.97h.76Z"/>
        <path class="cls-5" d="m55.21,56.4c0-2.62-6.09-.75-6.09-4.22,0-1.64,1.39-2.5,3.29-2.5s3.38.72,3.5,2.57l-.67.17h-.05c-.15-1.59-1.33-2.05-2.81-2.05s-2.46.59-2.46,1.8c0,2.65,6.09.77,6.09,4.16,0,2.21-1.85,2.86-3.49,2.86-1.81,0-3.45-.68-3.56-2.58l.67-.19h.05c.12,1.62,1.4,2.08,2.85,2.08,1.28,0,2.68-.4,2.68-2.09Z"/>
        <path class="cls-5" d="m60.34,59.02v-8.5h-3.53v-.69h7.81v.69h-3.52v8.5h-.76Z"/>
        <path class="cls-5" d="m70.69,54.92l1.97,4.05v.05h-.83l-1.9-4c-.19.01-.37.01-.57.01h-2.53v3.98h-.76v-9.19h3.52c1.77,0,3.1.68,3.1,2.61,0,1.48-.91,2.29-2,2.48Zm-3.86-.56h2.77c1.4,0,2.29-.51,2.29-1.92s-.91-1.92-2.29-1.92h-2.77v3.84Z"/>
        <path class="cls-5" d="m75.32,49.83v9.19h-.76v-9.19h.76Z"/>
        <path class="cls-5" d="m83.19,54.51h-4.64v3.82h5.53v.69h-6.29v-9.19h6.29v.69h-5.53v3.29h4.64v.69Z"/>
        <path class="cls-5" d="m91.49,56.4c0-2.62-6.09-.75-6.09-4.22,0-1.64,1.39-2.5,3.29-2.5s3.38.72,3.5,2.57l-.67.17h-.05c-.15-1.59-1.33-2.05-2.81-2.05s-2.46.59-2.46,1.8c0,2.65,6.09.77,6.09,4.16,0,2.21-1.85,2.86-3.49,2.86-1.81,0-3.45-.68-3.56-2.58l.67-.19h.05c.12,1.62,1.4,2.08,2.85,2.08,1.28,0,2.68-.4,2.68-2.09Z"/>
      </g>
    </g>
  </g>
</svg>