<?xml version="1.0" encoding="UTF-8"?>
<svg id="Layer_2" data-name="Layer 2" xmlns="http://www.w3.org/2000/svg" viewBox="0 0 147.88 17.62">
  <defs>
    <style>
      .cls-1 {
        fill: #fff;
        stroke-width: 0px;
      }
    </style>
  </defs>
  <g id="Layer_1-2" data-name="Layer 1">
    <g>
      <path class="cls-1" d="m2.57,9.23c1.47.69,3.48,1.27,6.08,1.27,1.39,0,2.98-.18,2.98-.76,0-.46-1-.54-2.4-.63-5.16-.33-7.54-1.2-7.54-3.66,0-2.88,3.12-3.95,6.71-3.95,2.35,0,4.47.5,6,1.16l-1.18,2.75c-1.25-.51-3.09-.9-5.04-.9-1.48,0-2.88.18-2.88.77,0,.42.71.52,1.96.6,4.5.25,7.98.87,7.98,3.71,0,2.64-2.82,3.93-6.77,3.93-3.43,0-5.67-.81-7.2-1.53l1.3-2.74Z"/>
      <path class="cls-1" d="m17.18,7.5c0-3.42,3.22-6,8.05-6s8.04,2.58,8.04,6-3.23,6-8.04,6-8.05-2.58-8.05-6Zm12.34,0c0-1.83-1.95-2.92-4.29-2.92s-4.3,1.09-4.3,2.92,1.95,2.92,4.3,2.92,4.29-1.11,4.29-2.92Z"/>
      <path class="cls-1" d="m35.97,1.88h3.6v8.25h8.42v3h-12.01V1.88Z"/>
      <path class="cls-1" d="m61.77,11.54h-8.04l-1.65,2.19-2.67-1.96L57.75,1.05l8.34,10.71-2.67,1.96-1.65-2.19Zm-4.02-5.33l-1.88,2.48h3.75l-1.88-2.48Z"/>
      <path class="cls-1" d="m75.75,9.96c-.45.03-.93.04-1.42.04-.88,0-1.75-.03-2.54-.08v3.2h-3.6V1.73c1.7-.12,3.75-.23,5.85-.23,6.2,0,8.13,1.98,8.13,4.12,0,1.42-.88,2.7-2.75,3.51l2.5,2.55-2.71,2.04-3.46-3.76Zm2.67-4.14c0-.64-1-1.25-4.32-1.25-.87,0-1.65.03-2.31.06v2.38c.66.03,1.44.06,2.31.06,3.31,0,4.32-.62,4.32-1.26Z"/>
      <path class="cls-1" d="m84.05,1.88h14.16v3h-5.22v8.25h-3.72V4.88h-5.22V1.88Z"/>
      <path class="cls-1" d="m113.15,13.12h-12.31V1.88h12.33v3h-8.73v1.28h6.96v2.7h-6.96v1.27h8.71v3Z"/>
      <path class="cls-1" d="m129.14,12.15c-1.44.85-3.32,1.35-5.46,1.35-4.96,0-8.34-2.58-8.34-6s3.38-6,8.34-6c2.14,0,4.02.5,5.46,1.35l-1.52,2.64c-1.05-.54-2.49-.92-3.94-.92-2.49,0-4.59,1.09-4.59,2.92s2.1,2.92,4.59,2.92c1.46,0,2.89-.38,3.94-.92l1.52,2.64Z"/>
      <path class="cls-1" d="m142.26,9h-6.9v4.12h-3.6V1.88h3.6v4.12h6.9V1.88h3.6v11.25h-3.6v-4.12Z"/>
    </g>
  </g>
</svg>