<?xml version="1.0" encoding="UTF-8"?>
<svg id="Layer_2" data-name="Layer 2" xmlns="http://www.w3.org/2000/svg" viewBox="0 0 45.7 43.1">
  <defs>
    <style>
      .cls-1 {
        fill: #dcdcdc;
      }

      .cls-1, .cls-2, .cls-3, .cls-4, .cls-5, .cls-6 {
        stroke-width: 0px;
      }

      .cls-3 {
        fill: #2d2d2d;
      }

      .cls-4 {
        fill: #fff;
      }

      .cls-5 {
        fill: #787878;
      }

      .cls-7 {
        stroke-width: 3px;
      }

      .cls-7, .cls-8 {
        fill: none;
        stroke: #000;
        stroke-linecap: round;
        stroke-linejoin: round;
      }

      .cls-8 {
        stroke-width: 2px;
      }

      .cls-6 {
        fill: #6cf;
      }
    </style>
  </defs>
  <g id="Layer_1-2" data-name="Layer 1">
    <g>
      <g>
        <g>
          <rect class="cls-2" x="44.2" y="23.48" width=".48" height="7.85"/>
          <polygon class="cls-4" points="44.2 31.33 44.2 41.6 13.98 32.42 25.81 12.09 44.2 1.5 44.2 23.48 24.14 23.48 24.14 31.33 44.2 31.33"/>
          <rect class="cls-2" x="24.14" y="23.48" width="20.06" height="7.85"/>
          <polygon class="cls-5" points="44.2 1.5 25.81 12.09 1.5 1.5 44.2 1.5"/>
          <polygon class="cls-1" points="44.2 41.6 1.5 41.6 13.98 32.42 44.2 41.6"/>
          <polygon class="cls-3" points="25.81 12.09 13.98 32.42 1.5 41.6 1.5 1.5 25.81 12.09"/>
        </g>
        <g>
          <polyline class="cls-7" points="44.2 31.33 44.2 41.6 1.5 41.6 1.5 1.5"/>
          <line class="cls-8" x1="44.2" y1="23.48" x2="44.2" y2="31.33"/>
          <line class="cls-7" x1="44.2" y1="1.5" x2="44.2" y2="23.48"/>
          <polyline class="cls-7" points="1.5 41.6 13.98 32.42 25.81 12.09 1.5 1.5 44.2 1.5 25.81 12.09"/>
          <line class="cls-7" x1="44.2" y1="41.6" x2="13.98" y2="32.42"/>
          <polygon class="cls-8" points="44.2 23.48 44.68 23.48 44.68 31.33 44.2 31.33 24.14 31.33 24.14 23.48 44.2 23.48"/>
        </g>
      </g>
      <g>
        <path class="cls-6" d="m24.82,29.81l.42-.57h.17c.61.47,1.71.86,2.99.86s2.08-.32,2.08-.98c0-1.68-5.27-.84-5.27-3.17,0-.99,1.18-1.8,3.45-1.8,1.13,0,2.25.19,3.02.65l-.37.57h-.18c-.55-.41-1.44-.64-2.47-.64-1.42,0-1.94.32-1.94.81,0,1.4,5.4.77,5.4,3.15,0,1.37-1.63,1.99-3.73,1.99-1.46,0-2.71-.33-3.58-.86Z"/>
        <path class="cls-6" d="m39.66,24.83v5.73h-1.62v-5.73h-2.94l.29-.58h6.93l.3.58h-2.95Z"/>
      </g>
    </g>
  </g>
</svg>