<?xml version="1.0" encoding="UTF-8"?>
<svg id="Layer_2" data-name="Layer 2" xmlns="http://www.w3.org/2000/svg" viewBox="0 0 45.7 43.1">
  <defs>
    <style>
      .cls-1 {
        fill: #dcdcdc;
      }

      .cls-1, .cls-2, .cls-3, .cls-4, .cls-5, .cls-6 {
        stroke-width: 0px;
      }

      .cls-3 {
        fill: #5a5a5a;
      }

      .cls-4 {
        fill: #fff;
      }

      .cls-5 {
        fill: #787878;
      }

      .cls-7 {
        fill: none;
        stroke: #000;
        stroke-linecap: round;
        stroke-linejoin: round;
        stroke-width: 3px;
      }

      .cls-6 {
        fill: #6cf;
      }
    </style>
  </defs>
  <g id="Layer_1-2" data-name="Layer 1">
    <g>
      <g>
        <g>
          <polygon class="cls-4" points="44.2 30.23 44.2 41.6 17.98 30.8 27.72 12.3 44.2 1.5 44.2 23.49 27.31 23.49 27.31 30.23 44.2 30.23"/>
          <rect class="cls-2" x="27.31" y="23.49" width="16.89" height="6.74"/>
          <polygon class="cls-5" points="44.2 1.5 27.72 12.3 1.5 1.5 44.2 1.5"/>
          <polygon class="cls-1" points="44.2 41.6 1.5 41.6 17.98 30.8 44.2 41.6"/>
          <polygon class="cls-3" points="27.72 12.3 17.98 30.8 1.5 41.6 1.5 1.5 27.72 12.3"/>
        </g>
        <g>
          <polyline class="cls-7" points="44.2 30.23 44.2 41.6 1.5 41.6 1.5 1.5 44.2 1.5 44.2 23.49"/>
          <polyline class="cls-7" points="1.5 1.5 27.72 12.3 44.2 1.5"/>
          <polyline class="cls-7" points="44.2 41.6 17.98 30.8 1.5 41.6"/>
          <line class="cls-7" x1="27.72" y1="12.3" x2="17.98" y2="30.8"/>
          <rect class="cls-7" x="27.31" y="23.49" width="16.89" height="6.74"/>
        </g>
      </g>
      <g>
        <path class="cls-6" d="m27.82,27.79c.54.34,1.28.63,2.23.63.51,0,1.1-.09,1.1-.38,0-.23-.37-.27-.88-.31-1.89-.16-2.77-.59-2.77-1.8,0-1.42,1.15-1.94,2.46-1.94.87,0,1.64.24,2.2.57l-.44,1.35c-.46-.25-1.13-.44-1.85-.44-.55,0-1.06.09-1.06.38,0,.21.26.26.72.29,1.65.13,2.93.43,2.93,1.82,0,1.3-1.04,1.94-2.48,1.94-1.26,0-2.08-.4-2.64-.75l.48-1.35Z"/>
        <path class="cls-6" d="m34.11,24.17h5.2v1.48h-1.92v4.06h-1.37v-4.06h-1.92v-1.48Z"/>
        <path class="cls-4" d="m41.37,24.17h1.32v5.54h-1.32v-5.54Z"/>
      </g>
    </g>
  </g>
</svg>