<?xml version="1.0" encoding="UTF-8"?>
<svg id="Layer_2" data-name="Layer 2" xmlns="http://www.w3.org/2000/svg" viewBox="0 0 45.69 43.1">
  <defs>
    <style>
      .cls-1, .cls-2 {
        stroke: #000;
        stroke-linecap: round;
        stroke-linejoin: round;
        stroke-width: 3px;
      }

      .cls-3 {
        fill: #fff;
        stroke-width: 0px;
      }

      .cls-2 {
        fill: none;
      }
    </style>
  </defs>
  <g id="Layer_1-2" data-name="Layer 1">
    <g>
      <rect class="cls-2" x="1.5" y="1.5" width="42.69" height="40.1"/>
      <polyline class="cls-2" points="1.5 1.5 27.72 12.3 44.19 1.5"/>
      <polyline class="cls-2" points="44.19 41.6 17.97 30.8 1.5 41.6"/>
      <line class="cls-2" x1="27.72" y1="12.3" x2="17.97" y2="30.8"/>
      <rect class="cls-1" x="27.31" y="23.49" width="16.88" height="6.75"/>
      <g>
        <path class="cls-3" d="m27.82,27.78c.54.34,1.28.63,2.23.63.51,0,1.1-.09,1.1-.38,0-.23-.37-.27-.88-.31-1.89-.16-2.77-.59-2.77-1.8,0-1.42,1.15-1.94,2.46-1.94.87,0,1.64.24,2.2.57l-.44,1.35c-.46-.25-1.13-.44-1.85-.44-.55,0-1.06.09-1.06.38,0,.21.26.26.72.3,1.65.13,2.93.43,2.93,1.82,0,1.3-1.04,1.94-2.48,1.94-1.26,0-2.08-.4-2.64-.75l.48-1.35Z"/>
        <path class="cls-3" d="m34.11,24.16h5.2v1.48h-1.92v4.06h-1.37v-4.06h-1.92v-1.48Z"/>
        <path class="cls-3" d="m41.37,24.16h1.32v5.54h-1.32v-5.54Z"/>
      </g>
    </g>
  </g>
</svg>